<svg xmlns="http://www.w3.org/2000/svg" xmlns:xlink="http://www.w3.org/1999/xlink" width="500" height="500" viewBox="0 0 2000 2000">
<defs>
  <clipPath id="clip090">
    <rect x="0" y="0" width="2000" height="2000"></rect>
  </clipPath>
</defs>
<path clip-path="url(#clip090)" d="M0 2000 L2000 2000 L2000 0 L0 0  Z" fill="#ffffff" fill-rule="evenodd" fill-opacity="1"></path>
<defs>
  <clipPath id="clip091">
    <rect x="400" y="200" width="1401" height="1401"></rect>
  </clipPath>
</defs>
<path clip-path="url(#clip090)" d="M239.626 1778.14 L1952.76 1778.14 L1952.76 153.712 L239.626 153.712  Z" fill="#ffffff" fill-rule="evenodd" fill-opacity="1"></path>
<defs>
  <clipPath id="clip092">
    <rect x="239" y="153" width="1714" height="1625"></rect>
  </clipPath>
</defs>
<polyline clip-path="url(#clip092)" style="stroke:#000000; stroke-linecap:round; stroke-linejoin:round; stroke-width:8; stroke-opacity:0.05; fill:none" stroke-dasharray="32, 20" points="267.653,1778.14 267.653,153.712 "></polyline>
<polyline clip-path="url(#clip092)" style="stroke:#000000; stroke-linecap:round; stroke-linejoin:round; stroke-width:8; stroke-opacity:0.05; fill:none" stroke-dasharray="32, 20" points="676.808,1778.14 676.808,153.712 "></polyline>
<polyline clip-path="url(#clip092)" style="stroke:#000000; stroke-linecap:round; stroke-linejoin:round; stroke-width:8; stroke-opacity:0.05; fill:none" stroke-dasharray="32, 20" points="1085.96,1778.14 1085.96,153.712 "></polyline>
<polyline clip-path="url(#clip092)" style="stroke:#000000; stroke-linecap:round; stroke-linejoin:round; stroke-width:8; stroke-opacity:0.05; fill:none" stroke-dasharray="32, 20" points="1495.12,1778.14 1495.12,153.712 "></polyline>
<polyline clip-path="url(#clip092)" style="stroke:#000000; stroke-linecap:round; stroke-linejoin:round; stroke-width:8; stroke-opacity:0.05; fill:none" stroke-dasharray="32, 20" points="1904.27,1778.14 1904.27,153.712 "></polyline>
<polyline clip-path="url(#clip092)" style="stroke:#000000; stroke-linecap:round; stroke-linejoin:round; stroke-width:8; stroke-opacity:0.05; fill:none" stroke-dasharray="32, 20" points="239.626,1778.14 1952.76,1778.14 "></polyline>
<polyline clip-path="url(#clip092)" style="stroke:#000000; stroke-linecap:round; stroke-linejoin:round; stroke-width:8; stroke-opacity:0.05; fill:none" stroke-dasharray="32, 20" points="239.626,1615.7 1952.76,1615.7 "></polyline>
<polyline clip-path="url(#clip092)" style="stroke:#000000; stroke-linecap:round; stroke-linejoin:round; stroke-width:8; stroke-opacity:0.05; fill:none" stroke-dasharray="32, 20" points="239.626,1453.25 1952.76,1453.25 "></polyline>
<polyline clip-path="url(#clip092)" style="stroke:#000000; stroke-linecap:round; stroke-linejoin:round; stroke-width:8; stroke-opacity:0.05; fill:none" stroke-dasharray="32, 20" points="239.626,1290.81 1952.76,1290.81 "></polyline>
<polyline clip-path="url(#clip092)" style="stroke:#000000; stroke-linecap:round; stroke-linejoin:round; stroke-width:8; stroke-opacity:0.05; fill:none" stroke-dasharray="32, 20" points="239.626,1128.37 1952.76,1128.37 "></polyline>
<polyline clip-path="url(#clip092)" style="stroke:#000000; stroke-linecap:round; stroke-linejoin:round; stroke-width:8; stroke-opacity:0.05; fill:none" stroke-dasharray="32, 20" points="239.626,965.926 1952.76,965.926 "></polyline>
<polyline clip-path="url(#clip092)" style="stroke:#000000; stroke-linecap:round; stroke-linejoin:round; stroke-width:8; stroke-opacity:0.05; fill:none" stroke-dasharray="32, 20" points="239.626,803.483 1952.76,803.483 "></polyline>
<polyline clip-path="url(#clip092)" style="stroke:#000000; stroke-linecap:round; stroke-linejoin:round; stroke-width:8; stroke-opacity:0.05; fill:none" stroke-dasharray="32, 20" points="239.626,641.04 1952.76,641.04 "></polyline>
<polyline clip-path="url(#clip092)" style="stroke:#000000; stroke-linecap:round; stroke-linejoin:round; stroke-width:8; stroke-opacity:0.05; fill:none" stroke-dasharray="32, 20" points="239.626,478.598 1952.76,478.598 "></polyline>
<polyline clip-path="url(#clip092)" style="stroke:#000000; stroke-linecap:round; stroke-linejoin:round; stroke-width:8; stroke-opacity:0.05; fill:none" stroke-dasharray="32, 20" points="239.626,316.155 1952.76,316.155 "></polyline>
<polyline clip-path="url(#clip092)" style="stroke:#000000; stroke-linecap:round; stroke-linejoin:round; stroke-width:8; stroke-opacity:0.05; fill:none" stroke-dasharray="32, 20" points="239.626,153.712 1952.76,153.712 "></polyline>
<polyline clip-path="url(#clip090)" style="stroke:#000000; stroke-linecap:round; stroke-linejoin:round; stroke-width:4; stroke-opacity:1; fill:none" points="239.626,1778.14 1952.76,1778.14 "></polyline>
<polyline clip-path="url(#clip090)" style="stroke:#000000; stroke-linecap:round; stroke-linejoin:round; stroke-width:4; stroke-opacity:1; fill:none" points="267.653,1778.14 267.653,1759.24 "></polyline>
<polyline clip-path="url(#clip090)" style="stroke:#000000; stroke-linecap:round; stroke-linejoin:round; stroke-width:4; stroke-opacity:1; fill:none" points="676.808,1778.14 676.808,1759.24 "></polyline>
<polyline clip-path="url(#clip090)" style="stroke:#000000; stroke-linecap:round; stroke-linejoin:round; stroke-width:4; stroke-opacity:1; fill:none" points="1085.96,1778.14 1085.96,1759.24 "></polyline>
<polyline clip-path="url(#clip090)" style="stroke:#000000; stroke-linecap:round; stroke-linejoin:round; stroke-width:4; stroke-opacity:1; fill:none" points="1495.12,1778.14 1495.12,1759.24 "></polyline>
<polyline clip-path="url(#clip090)" style="stroke:#000000; stroke-linecap:round; stroke-linejoin:round; stroke-width:4; stroke-opacity:1; fill:none" points="1904.27,1778.14 1904.27,1759.24 "></polyline>
<path clip-path="url(#clip090)" d="M267.653 1805.86 Q264.042 1805.86 262.214 1809.42 Q260.408 1812.96 260.408 1820.09 Q260.408 1827.2 262.214 1830.77 Q264.042 1834.31 267.653 1834.31 Q271.288 1834.31 273.093 1830.77 Q274.922 1827.2 274.922 1820.09 Q274.922 1812.96 273.093 1809.42 Q271.288 1805.86 267.653 1805.86 M267.653 1802.15 Q273.463 1802.15 276.519 1806.76 Q279.598 1811.34 279.598 1820.09 Q279.598 1828.82 276.519 1833.43 Q273.463 1838.01 267.653 1838.01 Q261.843 1838.01 258.765 1833.43 Q255.709 1828.82 255.709 1820.09 Q255.709 1811.34 258.765 1806.76 Q261.843 1802.15 267.653 1802.15 Z" fill="#000000" fill-rule="nonzero" fill-opacity="1"></path><path clip-path="url(#clip090)" d="M655.581 1833.4 L671.9 1833.4 L671.9 1837.34 L649.956 1837.34 L649.956 1833.4 Q652.618 1830.65 657.201 1826.02 Q661.808 1821.37 662.988 1820.03 Q665.234 1817.5 666.113 1815.77 Q667.016 1814.01 667.016 1812.32 Q667.016 1809.56 665.072 1807.83 Q663.15 1806.09 660.049 1806.09 Q657.85 1806.09 655.396 1806.85 Q652.965 1807.62 650.188 1809.17 L650.188 1804.45 Q653.012 1803.31 655.465 1802.73 Q657.919 1802.15 659.956 1802.15 Q665.326 1802.15 668.521 1804.84 Q671.715 1807.53 671.715 1812.02 Q671.715 1814.15 670.905 1816.07 Q670.118 1817.96 668.012 1820.56 Q667.433 1821.23 664.331 1824.45 Q661.229 1827.64 655.581 1833.4 Z" fill="#000000" fill-rule="nonzero" fill-opacity="1"></path><path clip-path="url(#clip090)" d="M691.715 1805.86 Q688.104 1805.86 686.275 1809.42 Q684.47 1812.96 684.47 1820.09 Q684.47 1827.2 686.275 1830.77 Q688.104 1834.31 691.715 1834.31 Q695.349 1834.31 697.155 1830.77 Q698.984 1827.2 698.984 1820.09 Q698.984 1812.96 697.155 1809.42 Q695.349 1805.86 691.715 1805.86 M691.715 1802.15 Q697.525 1802.15 700.581 1806.76 Q703.659 1811.34 703.659 1820.09 Q703.659 1828.82 700.581 1833.43 Q697.525 1838.01 691.715 1838.01 Q685.905 1838.01 682.826 1833.43 Q679.771 1828.82 679.771 1820.09 Q679.771 1811.34 682.826 1806.76 Q685.905 1802.15 691.715 1802.15 Z" fill="#000000" fill-rule="nonzero" fill-opacity="1"></path><path clip-path="url(#clip090)" d="M1074.13 1806.85 L1062.33 1825.3 L1074.13 1825.3 L1074.13 1806.85 M1072.91 1802.78 L1078.79 1802.78 L1078.79 1825.3 L1083.72 1825.3 L1083.72 1829.19 L1078.79 1829.19 L1078.79 1837.34 L1074.13 1837.34 L1074.13 1829.19 L1058.53 1829.19 L1058.53 1824.68 L1072.91 1802.78 Z" fill="#000000" fill-rule="nonzero" fill-opacity="1"></path><path clip-path="url(#clip090)" d="M1101.45 1805.86 Q1097.84 1805.86 1096.01 1809.42 Q1094.2 1812.96 1094.2 1820.09 Q1094.2 1827.2 1096.01 1830.77 Q1097.84 1834.31 1101.45 1834.31 Q1105.08 1834.31 1106.89 1830.77 Q1108.72 1827.2 1108.72 1820.09 Q1108.72 1812.96 1106.89 1809.42 Q1105.08 1805.86 1101.45 1805.86 M1101.45 1802.15 Q1107.26 1802.15 1110.31 1806.76 Q1113.39 1811.34 1113.39 1820.09 Q1113.39 1828.82 1110.31 1833.43 Q1107.26 1838.01 1101.45 1838.01 Q1095.64 1838.01 1092.56 1833.43 Q1089.5 1828.82 1089.5 1820.09 Q1089.5 1811.34 1092.56 1806.76 Q1095.64 1802.15 1101.45 1802.15 Z" fill="#000000" fill-rule="nonzero" fill-opacity="1"></path><path clip-path="url(#clip090)" d="M1480.52 1818.2 Q1477.37 1818.2 1475.52 1820.35 Q1473.69 1822.5 1473.69 1826.25 Q1473.69 1829.98 1475.52 1832.15 Q1477.37 1834.31 1480.52 1834.31 Q1483.67 1834.31 1485.5 1832.15 Q1487.35 1829.98 1487.35 1826.25 Q1487.35 1822.5 1485.5 1820.35 Q1483.67 1818.2 1480.52 1818.2 M1489.8 1803.54 L1489.8 1807.8 Q1488.04 1806.97 1486.24 1806.53 Q1484.46 1806.09 1482.7 1806.09 Q1478.07 1806.09 1475.61 1809.21 Q1473.18 1812.34 1472.84 1818.66 Q1474.2 1816.65 1476.26 1815.58 Q1478.32 1814.49 1480.8 1814.49 Q1486.01 1814.49 1489.02 1817.66 Q1492.05 1820.81 1492.05 1826.25 Q1492.05 1831.58 1488.9 1834.79 Q1485.75 1838.01 1480.52 1838.01 Q1474.53 1838.01 1471.36 1833.43 Q1468.18 1828.82 1468.18 1820.09 Q1468.18 1811.9 1472.07 1807.04 Q1475.96 1802.15 1482.51 1802.15 Q1484.27 1802.15 1486.05 1802.5 Q1487.86 1802.85 1489.8 1803.54 Z" fill="#000000" fill-rule="nonzero" fill-opacity="1"></path><path clip-path="url(#clip090)" d="M1510.11 1805.86 Q1506.49 1805.86 1504.67 1809.42 Q1502.86 1812.96 1502.86 1820.09 Q1502.86 1827.2 1504.67 1830.77 Q1506.49 1834.31 1510.11 1834.31 Q1513.74 1834.31 1515.54 1830.77 Q1517.37 1827.2 1517.37 1820.09 Q1517.37 1812.96 1515.54 1809.42 Q1513.74 1805.86 1510.11 1805.86 M1510.11 1802.15 Q1515.92 1802.15 1518.97 1806.76 Q1522.05 1811.34 1522.05 1820.09 Q1522.05 1828.82 1518.97 1833.43 Q1515.92 1838.01 1510.11 1838.01 Q1504.29 1838.01 1501.22 1833.43 Q1498.16 1828.82 1498.16 1820.09 Q1498.16 1811.34 1501.22 1806.76 Q1504.29 1802.15 1510.11 1802.15 Z" fill="#000000" fill-rule="nonzero" fill-opacity="1"></path><path clip-path="url(#clip090)" d="M1889.14 1820.93 Q1885.81 1820.93 1883.89 1822.71 Q1881.99 1824.49 1881.99 1827.62 Q1881.99 1830.74 1883.89 1832.53 Q1885.81 1834.31 1889.14 1834.31 Q1892.48 1834.31 1894.4 1832.53 Q1896.32 1830.72 1896.32 1827.62 Q1896.32 1824.49 1894.4 1822.71 Q1892.5 1820.93 1889.14 1820.93 M1884.47 1818.94 Q1881.46 1818.2 1879.77 1816.14 Q1878.1 1814.08 1878.1 1811.11 Q1878.1 1806.97 1881.04 1804.56 Q1884.01 1802.15 1889.14 1802.15 Q1894.31 1802.15 1897.25 1804.56 Q1900.19 1806.97 1900.19 1811.11 Q1900.19 1814.08 1898.5 1816.14 Q1896.83 1818.2 1893.84 1818.94 Q1897.22 1819.72 1899.1 1822.02 Q1901 1824.31 1901 1827.62 Q1901 1832.64 1897.92 1835.33 Q1894.86 1838.01 1889.14 1838.01 Q1883.43 1838.01 1880.35 1835.33 Q1877.29 1832.64 1877.29 1827.62 Q1877.29 1824.31 1879.19 1822.02 Q1881.09 1819.72 1884.47 1818.94 M1882.76 1811.55 Q1882.76 1814.24 1884.42 1815.74 Q1886.11 1817.25 1889.14 1817.25 Q1892.15 1817.25 1893.84 1815.74 Q1895.56 1814.24 1895.56 1811.55 Q1895.56 1808.87 1893.84 1807.36 Q1892.15 1805.86 1889.14 1805.86 Q1886.11 1805.86 1884.42 1807.36 Q1882.76 1808.87 1882.76 1811.55 Z" fill="#000000" fill-rule="nonzero" fill-opacity="1"></path><path clip-path="url(#clip090)" d="M1919.31 1805.86 Q1915.69 1805.86 1913.87 1809.42 Q1912.06 1812.96 1912.06 1820.09 Q1912.06 1827.2 1913.87 1830.77 Q1915.69 1834.31 1919.31 1834.31 Q1922.94 1834.31 1924.75 1830.77 Q1926.57 1827.2 1926.57 1820.09 Q1926.57 1812.96 1924.75 1809.42 Q1922.94 1805.86 1919.31 1805.86 M1919.31 1802.15 Q1925.12 1802.15 1928.17 1806.76 Q1931.25 1811.34 1931.25 1820.09 Q1931.25 1828.82 1928.17 1833.43 Q1925.12 1838.01 1919.31 1838.01 Q1913.5 1838.01 1910.42 1833.43 Q1907.36 1828.82 1907.36 1820.09 Q1907.36 1811.34 1910.42 1806.76 Q1913.5 1802.15 1919.31 1802.15 Z" fill="#000000" fill-rule="nonzero" fill-opacity="1"></path><path clip-path="url(#clip090)" d="M966.362 1869.48 L1006.56 1869.48 L1006.56 1874.89 L989.693 1874.89 L989.693 1917 L983.232 1917 L983.232 1874.89 L966.362 1874.89 L966.362 1869.48 Z" fill="#000000" fill-rule="nonzero" fill-opacity="1"></path><path clip-path="url(#clip090)" d="M1010.51 1881.36 L1016.37 1881.36 L1016.37 1917 L1010.51 1917 L1010.51 1881.36 M1010.51 1867.48 L1016.37 1867.48 L1016.37 1874.89 L1010.51 1874.89 L1010.51 1867.48 Z" fill="#000000" fill-rule="nonzero" fill-opacity="1"></path><path clip-path="url(#clip090)" d="M1056.37 1888.2 Q1058.57 1884.25 1061.63 1882.37 Q1064.68 1880.5 1068.82 1880.5 Q1074.39 1880.5 1077.41 1884.41 Q1080.44 1888.29 1080.44 1895.49 L1080.44 1917 L1074.55 1917 L1074.55 1895.68 Q1074.55 1890.55 1072.73 1888.07 Q1070.92 1885.59 1067.2 1885.59 Q1062.64 1885.59 1060 1888.61 Q1057.36 1891.64 1057.36 1896.86 L1057.36 1917 L1051.47 1917 L1051.47 1895.68 Q1051.47 1890.52 1049.66 1888.07 Q1047.84 1885.59 1044.06 1885.59 Q1039.57 1885.59 1036.93 1888.64 Q1034.28 1891.67 1034.28 1896.86 L1034.28 1917 L1028.4 1917 L1028.4 1881.36 L1034.28 1881.36 L1034.28 1886.89 Q1036.29 1883.62 1039.09 1882.06 Q1041.89 1880.5 1045.74 1880.5 Q1049.63 1880.5 1052.33 1882.47 Q1055.07 1884.44 1056.37 1888.2 Z" fill="#000000" fill-rule="nonzero" fill-opacity="1"></path><path clip-path="url(#clip090)" d="M1122.61 1897.72 L1122.61 1900.58 L1095.68 1900.58 Q1096.06 1906.63 1099.31 1909.81 Q1102.59 1912.96 1108.41 1912.96 Q1111.79 1912.96 1114.94 1912.13 Q1118.12 1911.31 1121.24 1909.65 L1121.24 1915.19 Q1118.09 1916.53 1114.78 1917.23 Q1111.47 1917.93 1108.06 1917.93 Q1099.53 1917.93 1094.54 1912.96 Q1089.57 1908 1089.57 1899.53 Q1089.57 1890.78 1094.28 1885.65 Q1099.02 1880.5 1107.04 1880.5 Q1114.24 1880.5 1118.41 1885.14 Q1122.61 1889.76 1122.61 1897.72 M1116.75 1896 Q1116.69 1891.19 1114.05 1888.33 Q1111.44 1885.46 1107.11 1885.46 Q1102.21 1885.46 1099.25 1888.23 Q1096.32 1891 1095.87 1896.03 L1116.75 1896 Z" fill="#000000" fill-rule="nonzero" fill-opacity="1"></path><path clip-path="url(#clip090)" d="M1167.01 1867.54 Q1162.74 1874.86 1160.68 1882.02 Q1158.61 1889.19 1158.61 1896.54 Q1158.61 1903.89 1160.68 1911.12 Q1162.78 1918.31 1167.01 1925.6 L1161.92 1925.6 Q1157.14 1918.12 1154.76 1910.89 Q1152.4 1903.67 1152.4 1896.54 Q1152.4 1889.44 1154.76 1882.25 Q1157.11 1875.05 1161.92 1867.54 L1167.01 1867.54 Z" fill="#000000" fill-rule="nonzero" fill-opacity="1"></path><path clip-path="url(#clip090)" d="M1201.1 1882.41 L1201.1 1887.94 Q1198.62 1886.67 1195.94 1886.03 Q1193.27 1885.4 1190.4 1885.4 Q1186.04 1885.4 1183.85 1886.73 Q1181.68 1888.07 1181.68 1890.75 Q1181.68 1892.78 1183.24 1893.96 Q1184.8 1895.11 1189.51 1896.16 L1191.52 1896.6 Q1197.76 1897.94 1200.37 1900.39 Q1203.01 1902.81 1203.01 1907.17 Q1203.01 1912.13 1199.06 1915.03 Q1195.15 1917.93 1188.27 1917.93 Q1185.41 1917.93 1182.29 1917.35 Q1179.2 1916.81 1175.76 1915.7 L1175.76 1909.65 Q1179.01 1911.34 1182.16 1912.2 Q1185.31 1913.03 1188.4 1913.03 Q1192.54 1913.03 1194.76 1911.62 Q1196.99 1910.19 1196.99 1907.61 Q1196.99 1905.23 1195.37 1903.95 Q1193.78 1902.68 1188.33 1901.5 L1186.3 1901.03 Q1180.85 1899.88 1178.44 1897.52 Q1176.02 1895.14 1176.02 1891 Q1176.02 1885.97 1179.58 1883.23 Q1183.15 1880.5 1189.7 1880.5 Q1192.95 1880.5 1195.81 1880.97 Q1198.68 1881.45 1201.1 1882.41 Z" fill="#000000" fill-rule="nonzero" fill-opacity="1"></path><path clip-path="url(#clip090)" d="M1211.41 1867.54 L1216.5 1867.54 Q1221.28 1875.05 1223.63 1882.25 Q1226.02 1889.44 1226.02 1896.54 Q1226.02 1903.67 1223.63 1910.89 Q1221.28 1918.12 1216.5 1925.6 L1211.41 1925.6 Q1215.64 1918.31 1217.71 1911.12 Q1219.81 1903.89 1219.81 1896.54 Q1219.81 1889.19 1217.71 1882.02 Q1215.64 1874.86 1211.41 1867.54 Z" fill="#000000" fill-rule="nonzero" fill-opacity="1"></path><polyline clip-path="url(#clip090)" style="stroke:#000000; stroke-linecap:round; stroke-linejoin:round; stroke-width:4; stroke-opacity:1; fill:none" points="239.626,1778.14 239.626,153.712 "></polyline>
<polyline clip-path="url(#clip090)" style="stroke:#000000; stroke-linecap:round; stroke-linejoin:round; stroke-width:4; stroke-opacity:1; fill:none" points="239.626,1778.14 258.524,1778.14 "></polyline>
<polyline clip-path="url(#clip090)" style="stroke:#000000; stroke-linecap:round; stroke-linejoin:round; stroke-width:4; stroke-opacity:1; fill:none" points="239.626,1615.7 258.524,1615.7 "></polyline>
<polyline clip-path="url(#clip090)" style="stroke:#000000; stroke-linecap:round; stroke-linejoin:round; stroke-width:4; stroke-opacity:1; fill:none" points="239.626,1453.25 258.524,1453.25 "></polyline>
<polyline clip-path="url(#clip090)" style="stroke:#000000; stroke-linecap:round; stroke-linejoin:round; stroke-width:4; stroke-opacity:1; fill:none" points="239.626,1290.81 258.524,1290.81 "></polyline>
<polyline clip-path="url(#clip090)" style="stroke:#000000; stroke-linecap:round; stroke-linejoin:round; stroke-width:4; stroke-opacity:1; fill:none" points="239.626,1128.37 258.524,1128.37 "></polyline>
<polyline clip-path="url(#clip090)" style="stroke:#000000; stroke-linecap:round; stroke-linejoin:round; stroke-width:4; stroke-opacity:1; fill:none" points="239.626,965.926 258.524,965.926 "></polyline>
<polyline clip-path="url(#clip090)" style="stroke:#000000; stroke-linecap:round; stroke-linejoin:round; stroke-width:4; stroke-opacity:1; fill:none" points="239.626,803.483 258.524,803.483 "></polyline>
<polyline clip-path="url(#clip090)" style="stroke:#000000; stroke-linecap:round; stroke-linejoin:round; stroke-width:4; stroke-opacity:1; fill:none" points="239.626,641.04 258.524,641.04 "></polyline>
<polyline clip-path="url(#clip090)" style="stroke:#000000; stroke-linecap:round; stroke-linejoin:round; stroke-width:4; stroke-opacity:1; fill:none" points="239.626,478.598 258.524,478.598 "></polyline>
<polyline clip-path="url(#clip090)" style="stroke:#000000; stroke-linecap:round; stroke-linejoin:round; stroke-width:4; stroke-opacity:1; fill:none" points="239.626,316.155 258.524,316.155 "></polyline>
<polyline clip-path="url(#clip090)" style="stroke:#000000; stroke-linecap:round; stroke-linejoin:round; stroke-width:4; stroke-opacity:1; fill:none" points="239.626,153.712 258.524,153.712 "></polyline>
<path clip-path="url(#clip090)" d="M152.451 1763.94 Q148.84 1763.94 147.011 1767.5 Q145.205 1771.04 145.205 1778.17 Q145.205 1785.28 147.011 1788.85 Q148.84 1792.39 152.451 1792.39 Q156.085 1792.39 157.89 1788.85 Q159.719 1785.28 159.719 1778.17 Q159.719 1771.04 157.89 1767.5 Q156.085 1763.94 152.451 1763.94 M152.451 1760.23 Q158.261 1760.23 161.316 1764.84 Q164.395 1769.42 164.395 1778.17 Q164.395 1786.9 161.316 1791.51 Q158.261 1796.09 152.451 1796.09 Q146.64 1796.09 143.562 1791.51 Q140.506 1786.9 140.506 1778.17 Q140.506 1769.42 143.562 1764.84 Q146.64 1760.23 152.451 1760.23 Z" fill="#000000" fill-rule="nonzero" fill-opacity="1"></path><path clip-path="url(#clip090)" d="M172.613 1789.54 L177.497 1789.54 L177.497 1795.42 L172.613 1795.42 L172.613 1789.54 Z" fill="#000000" fill-rule="nonzero" fill-opacity="1"></path><path clip-path="url(#clip090)" d="M197.682 1763.94 Q194.071 1763.94 192.242 1767.5 Q190.437 1771.04 190.437 1778.17 Q190.437 1785.28 192.242 1788.85 Q194.071 1792.39 197.682 1792.39 Q201.316 1792.39 203.122 1788.85 Q204.95 1785.28 204.95 1778.17 Q204.95 1771.04 203.122 1767.5 Q201.316 1763.94 197.682 1763.94 M197.682 1760.23 Q203.492 1760.23 206.548 1764.84 Q209.626 1769.42 209.626 1778.17 Q209.626 1786.9 206.548 1791.51 Q203.492 1796.09 197.682 1796.09 Q191.872 1796.09 188.793 1791.51 Q185.738 1786.9 185.738 1778.17 Q185.738 1769.42 188.793 1764.84 Q191.872 1760.23 197.682 1760.23 Z" fill="#000000" fill-rule="nonzero" fill-opacity="1"></path><path clip-path="url(#clip090)" d="M153.677 1601.5 Q150.066 1601.5 148.238 1605.06 Q146.432 1608.6 146.432 1615.73 Q146.432 1622.84 148.238 1626.4 Q150.066 1629.94 153.677 1629.94 Q157.312 1629.94 159.117 1626.4 Q160.946 1622.84 160.946 1615.73 Q160.946 1608.6 159.117 1605.06 Q157.312 1601.5 153.677 1601.5 M153.677 1597.79 Q159.488 1597.79 162.543 1602.4 Q165.622 1606.98 165.622 1615.73 Q165.622 1624.46 162.543 1629.07 Q159.488 1633.65 153.677 1633.65 Q147.867 1633.65 144.789 1629.07 Q141.733 1624.46 141.733 1615.73 Q141.733 1606.98 144.789 1602.4 Q147.867 1597.79 153.677 1597.79 Z" fill="#000000" fill-rule="nonzero" fill-opacity="1"></path><path clip-path="url(#clip090)" d="M173.839 1627.1 L178.724 1627.1 L178.724 1632.98 L173.839 1632.98 L173.839 1627.1 Z" fill="#000000" fill-rule="nonzero" fill-opacity="1"></path><path clip-path="url(#clip090)" d="M189.719 1629.04 L197.358 1629.04 L197.358 1602.68 L189.048 1604.34 L189.048 1600.08 L197.312 1598.42 L201.987 1598.42 L201.987 1629.04 L209.626 1629.04 L209.626 1632.98 L189.719 1632.98 L189.719 1629.04 Z" fill="#000000" fill-rule="nonzero" fill-opacity="1"></path><path clip-path="url(#clip090)" d="M154.048 1439.05 Q150.437 1439.05 148.608 1442.62 Q146.803 1446.16 146.803 1453.29 Q146.803 1460.4 148.608 1463.96 Q150.437 1467.5 154.048 1467.5 Q157.682 1467.5 159.488 1463.96 Q161.316 1460.4 161.316 1453.29 Q161.316 1446.16 159.488 1442.62 Q157.682 1439.05 154.048 1439.05 M154.048 1435.35 Q159.858 1435.35 162.914 1439.96 Q165.992 1444.54 165.992 1453.29 Q165.992 1462.02 162.914 1466.62 Q159.858 1471.21 154.048 1471.21 Q148.238 1471.21 145.159 1466.62 Q142.103 1462.02 142.103 1453.29 Q142.103 1444.54 145.159 1439.96 Q148.238 1435.35 154.048 1435.35 Z" fill="#000000" fill-rule="nonzero" fill-opacity="1"></path><path clip-path="url(#clip090)" d="M174.21 1464.65 L179.094 1464.65 L179.094 1470.53 L174.21 1470.53 L174.21 1464.65 Z" fill="#000000" fill-rule="nonzero" fill-opacity="1"></path><path clip-path="url(#clip090)" d="M193.307 1466.6 L209.626 1466.6 L209.626 1470.53 L187.682 1470.53 L187.682 1466.6 Q190.344 1463.84 194.927 1459.21 Q199.534 1454.56 200.714 1453.22 Q202.96 1450.7 203.839 1448.96 Q204.742 1447.2 204.742 1445.51 Q204.742 1442.76 202.798 1441.02 Q200.876 1439.28 197.774 1439.28 Q195.575 1439.28 193.122 1440.05 Q190.691 1440.81 187.913 1442.36 L187.913 1437.64 Q190.737 1436.51 193.191 1435.93 Q195.645 1435.35 197.682 1435.35 Q203.052 1435.35 206.247 1438.03 Q209.441 1440.72 209.441 1445.21 Q209.441 1447.34 208.631 1449.26 Q207.844 1451.16 205.737 1453.75 Q205.159 1454.42 202.057 1457.64 Q198.955 1460.84 193.307 1466.6 Z" fill="#000000" fill-rule="nonzero" fill-opacity="1"></path><path clip-path="url(#clip090)" d="M153.099 1276.61 Q149.488 1276.61 147.659 1280.18 Q145.853 1283.72 145.853 1290.85 Q145.853 1297.95 147.659 1301.52 Q149.488 1305.06 153.099 1305.06 Q156.733 1305.06 158.539 1301.52 Q160.367 1297.95 160.367 1290.85 Q160.367 1283.72 158.539 1280.18 Q156.733 1276.61 153.099 1276.61 M153.099 1272.91 Q158.909 1272.91 161.964 1277.51 Q165.043 1282.1 165.043 1290.85 Q165.043 1299.57 161.964 1304.18 Q158.909 1308.76 153.099 1308.76 Q147.289 1308.76 144.21 1304.18 Q141.154 1299.57 141.154 1290.85 Q141.154 1282.1 144.21 1277.51 Q147.289 1272.91 153.099 1272.91 Z" fill="#000000" fill-rule="nonzero" fill-opacity="1"></path><path clip-path="url(#clip090)" d="M173.261 1302.21 L178.145 1302.21 L178.145 1308.09 L173.261 1308.09 L173.261 1302.21 Z" fill="#000000" fill-rule="nonzero" fill-opacity="1"></path><path clip-path="url(#clip090)" d="M202.497 1289.46 Q205.853 1290.17 207.728 1292.44 Q209.626 1294.71 209.626 1298.05 Q209.626 1303.16 206.108 1305.96 Q202.589 1308.76 196.108 1308.76 Q193.932 1308.76 191.617 1308.32 Q189.325 1307.91 186.872 1307.05 L186.872 1302.54 Q188.816 1303.67 191.131 1304.25 Q193.446 1304.83 195.969 1304.83 Q200.367 1304.83 202.659 1303.09 Q204.974 1301.36 204.974 1298.05 Q204.974 1294.99 202.821 1293.28 Q200.691 1291.54 196.872 1291.54 L192.844 1291.54 L192.844 1287.7 L197.057 1287.7 Q200.506 1287.7 202.335 1286.33 Q204.163 1284.94 204.163 1282.35 Q204.163 1279.69 202.265 1278.28 Q200.39 1276.84 196.872 1276.84 Q194.95 1276.84 192.751 1277.26 Q190.552 1277.68 187.913 1278.55 L187.913 1274.39 Q190.575 1273.65 192.89 1273.28 Q195.228 1272.91 197.288 1272.91 Q202.612 1272.91 205.714 1275.34 Q208.816 1277.74 208.816 1281.86 Q208.816 1284.74 207.173 1286.73 Q205.529 1288.69 202.497 1289.46 Z" fill="#000000" fill-rule="nonzero" fill-opacity="1"></path><path clip-path="url(#clip090)" d="M151.965 1114.17 Q148.353 1114.17 146.525 1117.73 Q144.719 1121.27 144.719 1128.4 Q144.719 1135.51 146.525 1139.07 Q148.353 1142.62 151.965 1142.62 Q155.599 1142.62 157.404 1139.07 Q159.233 1135.51 159.233 1128.4 Q159.233 1121.27 157.404 1117.73 Q155.599 1114.17 151.965 1114.17 M151.965 1110.46 Q157.775 1110.46 160.83 1115.07 Q163.909 1119.65 163.909 1128.4 Q163.909 1137.13 160.83 1141.74 Q157.775 1146.32 151.965 1146.32 Q146.154 1146.32 143.076 1141.74 Q140.02 1137.13 140.02 1128.4 Q140.02 1119.65 143.076 1115.07 Q146.154 1110.46 151.965 1110.46 Z" fill="#000000" fill-rule="nonzero" fill-opacity="1"></path><path clip-path="url(#clip090)" d="M172.126 1139.77 L177.011 1139.77 L177.011 1145.65 L172.126 1145.65 L172.126 1139.77 Z" fill="#000000" fill-rule="nonzero" fill-opacity="1"></path><path clip-path="url(#clip090)" d="M200.043 1115.16 L188.237 1133.61 L200.043 1133.61 L200.043 1115.16 M198.816 1111.09 L204.696 1111.09 L204.696 1133.61 L209.626 1133.61 L209.626 1137.5 L204.696 1137.5 L204.696 1145.65 L200.043 1145.65 L200.043 1137.5 L184.441 1137.5 L184.441 1132.99 L198.816 1111.09 Z" fill="#000000" fill-rule="nonzero" fill-opacity="1"></path><path clip-path="url(#clip090)" d="M153.446 951.725 Q149.835 951.725 148.006 955.289 Q146.201 958.831 146.201 965.961 Q146.201 973.067 148.006 976.632 Q149.835 980.174 153.446 980.174 Q157.08 980.174 158.886 976.632 Q160.714 973.067 160.714 965.961 Q160.714 958.831 158.886 955.289 Q157.08 951.725 153.446 951.725 M153.446 948.021 Q159.256 948.021 162.312 952.627 Q165.39 957.211 165.39 965.961 Q165.39 974.688 162.312 979.294 Q159.256 983.877 153.446 983.877 Q147.636 983.877 144.557 979.294 Q141.502 974.688 141.502 965.961 Q141.502 957.211 144.557 952.627 Q147.636 948.021 153.446 948.021 Z" fill="#000000" fill-rule="nonzero" fill-opacity="1"></path><path clip-path="url(#clip090)" d="M173.608 977.326 L178.492 977.326 L178.492 983.206 L173.608 983.206 L173.608 977.326 Z" fill="#000000" fill-rule="nonzero" fill-opacity="1"></path><path clip-path="url(#clip090)" d="M188.724 948.646 L207.08 948.646 L207.08 952.581 L193.006 952.581 L193.006 961.053 Q194.024 960.706 195.043 960.544 Q196.062 960.359 197.08 960.359 Q202.867 960.359 206.247 963.53 Q209.626 966.701 209.626 972.118 Q209.626 977.697 206.154 980.799 Q202.682 983.877 196.362 983.877 Q194.187 983.877 191.918 983.507 Q189.673 983.137 187.265 982.396 L187.265 977.697 Q189.349 978.831 191.571 979.387 Q193.793 979.942 196.27 979.942 Q200.274 979.942 202.612 977.836 Q204.95 975.729 204.95 972.118 Q204.95 968.507 202.612 966.401 Q200.274 964.294 196.27 964.294 Q194.395 964.294 192.52 964.711 Q190.668 965.127 188.724 966.007 L188.724 948.646 Z" fill="#000000" fill-rule="nonzero" fill-opacity="1"></path><path clip-path="url(#clip090)" d="M152.289 789.282 Q148.678 789.282 146.849 792.847 Q145.043 796.388 145.043 803.518 Q145.043 810.624 146.849 814.189 Q148.678 817.731 152.289 817.731 Q155.923 817.731 157.728 814.189 Q159.557 810.624 159.557 803.518 Q159.557 796.388 157.728 792.847 Q155.923 789.282 152.289 789.282 M152.289 785.578 Q158.099 785.578 161.154 790.185 Q164.233 794.768 164.233 803.518 Q164.233 812.245 161.154 816.851 Q158.099 821.435 152.289 821.435 Q146.478 821.435 143.4 816.851 Q140.344 812.245 140.344 803.518 Q140.344 794.768 143.4 790.185 Q146.478 785.578 152.289 785.578 Z" fill="#000000" fill-rule="nonzero" fill-opacity="1"></path><path clip-path="url(#clip090)" d="M172.451 814.884 L177.335 814.884 L177.335 820.763 L172.451 820.763 L172.451 814.884 Z" fill="#000000" fill-rule="nonzero" fill-opacity="1"></path><path clip-path="url(#clip090)" d="M198.099 801.62 Q194.95 801.62 193.099 803.773 Q191.27 805.925 191.27 809.675 Q191.27 813.402 193.099 815.578 Q194.95 817.731 198.099 817.731 Q201.247 817.731 203.075 815.578 Q204.927 813.402 204.927 809.675 Q204.927 805.925 203.075 803.773 Q201.247 801.62 198.099 801.62 M207.381 786.967 L207.381 791.226 Q205.622 790.393 203.816 789.953 Q202.034 789.513 200.274 789.513 Q195.645 789.513 193.191 792.638 Q190.761 795.763 190.413 802.083 Q191.779 800.069 193.839 799.004 Q195.899 797.916 198.376 797.916 Q203.585 797.916 206.594 801.087 Q209.626 804.236 209.626 809.675 Q209.626 814.999 206.478 818.217 Q203.33 821.435 198.099 821.435 Q192.103 821.435 188.932 816.851 Q185.761 812.245 185.761 803.518 Q185.761 795.324 189.65 790.462 Q193.538 785.578 200.089 785.578 Q201.849 785.578 203.631 785.925 Q205.436 786.273 207.381 786.967 Z" fill="#000000" fill-rule="nonzero" fill-opacity="1"></path><path clip-path="url(#clip090)" d="M153.353 626.839 Q149.742 626.839 147.914 630.404 Q146.108 633.946 146.108 641.075 Q146.108 648.182 147.914 651.746 Q149.742 655.288 153.353 655.288 Q156.988 655.288 158.793 651.746 Q160.622 648.182 160.622 641.075 Q160.622 633.946 158.793 630.404 Q156.988 626.839 153.353 626.839 M153.353 623.135 Q159.164 623.135 162.219 627.742 Q165.298 632.325 165.298 641.075 Q165.298 649.802 162.219 654.408 Q159.164 658.992 153.353 658.992 Q147.543 658.992 144.465 654.408 Q141.409 649.802 141.409 641.075 Q141.409 632.325 144.465 627.742 Q147.543 623.135 153.353 623.135 Z" fill="#000000" fill-rule="nonzero" fill-opacity="1"></path><path clip-path="url(#clip090)" d="M173.515 652.441 L178.4 652.441 L178.4 658.32 L173.515 658.32 L173.515 652.441 Z" fill="#000000" fill-rule="nonzero" fill-opacity="1"></path><path clip-path="url(#clip090)" d="M187.404 623.76 L209.626 623.76 L209.626 625.751 L197.08 658.32 L192.196 658.32 L204.001 627.696 L187.404 627.696 L187.404 623.76 Z" fill="#000000" fill-rule="nonzero" fill-opacity="1"></path><path clip-path="url(#clip090)" d="M152.543 464.396 Q148.932 464.396 147.103 467.961 Q145.298 471.503 145.298 478.632 Q145.298 485.739 147.103 489.304 Q148.932 492.845 152.543 492.845 Q156.177 492.845 157.983 489.304 Q159.812 485.739 159.812 478.632 Q159.812 471.503 157.983 467.961 Q156.177 464.396 152.543 464.396 M152.543 460.693 Q158.353 460.693 161.409 465.299 Q164.488 469.882 164.488 478.632 Q164.488 487.359 161.409 491.966 Q158.353 496.549 152.543 496.549 Q146.733 496.549 143.654 491.966 Q140.599 487.359 140.599 478.632 Q140.599 469.882 143.654 465.299 Q146.733 460.693 152.543 460.693 Z" fill="#000000" fill-rule="nonzero" fill-opacity="1"></path><path clip-path="url(#clip090)" d="M172.705 489.998 L177.589 489.998 L177.589 495.878 L172.705 495.878 L172.705 489.998 Z" fill="#000000" fill-rule="nonzero" fill-opacity="1"></path><path clip-path="url(#clip090)" d="M197.774 479.466 Q194.441 479.466 192.52 481.248 Q190.622 483.031 190.622 486.155 Q190.622 489.28 192.52 491.063 Q194.441 492.845 197.774 492.845 Q201.108 492.845 203.029 491.063 Q204.95 489.257 204.95 486.155 Q204.95 483.031 203.029 481.248 Q201.131 479.466 197.774 479.466 M193.099 477.475 Q190.089 476.734 188.4 474.674 Q186.733 472.614 186.733 469.651 Q186.733 465.507 189.673 463.1 Q192.636 460.693 197.774 460.693 Q202.936 460.693 205.876 463.1 Q208.816 465.507 208.816 469.651 Q208.816 472.614 207.126 474.674 Q205.46 476.734 202.474 477.475 Q205.853 478.262 207.728 480.554 Q209.626 482.845 209.626 486.155 Q209.626 491.179 206.548 493.864 Q203.492 496.549 197.774 496.549 Q192.057 496.549 188.978 493.864 Q185.923 491.179 185.923 486.155 Q185.923 482.845 187.821 480.554 Q189.719 478.262 193.099 477.475 M191.386 470.091 Q191.386 472.776 193.052 474.281 Q194.742 475.785 197.774 475.785 Q200.784 475.785 202.474 474.281 Q204.186 472.776 204.186 470.091 Q204.186 467.406 202.474 465.901 Q200.784 464.396 197.774 464.396 Q194.742 464.396 193.052 465.901 Q191.386 467.406 191.386 470.091 Z" fill="#000000" fill-rule="nonzero" fill-opacity="1"></path><path clip-path="url(#clip090)" d="M152.636 301.954 Q149.025 301.954 147.196 305.518 Q145.39 309.06 145.39 316.19 Q145.39 323.296 147.196 326.861 Q149.025 330.403 152.636 330.403 Q156.27 330.403 158.076 326.861 Q159.904 323.296 159.904 316.19 Q159.904 309.06 158.076 305.518 Q156.27 301.954 152.636 301.954 M152.636 298.25 Q158.446 298.25 161.502 302.856 Q164.58 307.44 164.58 316.19 Q164.58 324.916 161.502 329.523 Q158.446 334.106 152.636 334.106 Q146.826 334.106 143.747 329.523 Q140.691 324.916 140.691 316.19 Q140.691 307.44 143.747 302.856 Q146.826 298.25 152.636 298.25 Z" fill="#000000" fill-rule="nonzero" fill-opacity="1"></path><path clip-path="url(#clip090)" d="M172.798 327.555 L177.682 327.555 L177.682 333.435 L172.798 333.435 L172.798 327.555 Z" fill="#000000" fill-rule="nonzero" fill-opacity="1"></path><path clip-path="url(#clip090)" d="M188.006 332.717 L188.006 328.458 Q189.765 329.291 191.571 329.731 Q193.376 330.171 195.112 330.171 Q199.742 330.171 202.173 327.069 Q204.626 323.944 204.974 317.602 Q203.631 319.592 201.571 320.657 Q199.511 321.722 197.011 321.722 Q191.825 321.722 188.793 318.597 Q185.784 315.449 185.784 310.009 Q185.784 304.685 188.932 301.467 Q192.08 298.25 197.312 298.25 Q203.307 298.25 206.455 302.856 Q209.626 307.44 209.626 316.19 Q209.626 324.361 205.737 329.245 Q201.872 334.106 195.321 334.106 Q193.562 334.106 191.756 333.759 Q189.95 333.412 188.006 332.717 M197.312 318.065 Q200.46 318.065 202.288 315.912 Q204.14 313.759 204.14 310.009 Q204.14 306.282 202.288 304.129 Q200.46 301.954 197.312 301.954 Q194.163 301.954 192.312 304.129 Q190.483 306.282 190.483 310.009 Q190.483 313.759 192.312 315.912 Q194.163 318.065 197.312 318.065 Z" fill="#000000" fill-rule="nonzero" fill-opacity="1"></path><path clip-path="url(#clip090)" d="M143.261 167.057 L150.9 167.057 L150.9 140.691 L142.59 142.358 L142.59 138.099 L150.853 136.432 L155.529 136.432 L155.529 167.057 L163.168 167.057 L163.168 170.992 L143.261 170.992 L143.261 167.057 Z" fill="#000000" fill-rule="nonzero" fill-opacity="1"></path><path clip-path="url(#clip090)" d="M172.613 165.113 L177.497 165.113 L177.497 170.992 L172.613 170.992 L172.613 165.113 Z" fill="#000000" fill-rule="nonzero" fill-opacity="1"></path><path clip-path="url(#clip090)" d="M197.682 139.511 Q194.071 139.511 192.242 143.076 Q190.437 146.617 190.437 153.747 Q190.437 160.853 192.242 164.418 Q194.071 167.96 197.682 167.96 Q201.316 167.96 203.122 164.418 Q204.95 160.853 204.95 153.747 Q204.95 146.617 203.122 143.076 Q201.316 139.511 197.682 139.511 M197.682 135.807 Q203.492 135.807 206.548 140.414 Q209.626 144.997 209.626 153.747 Q209.626 162.474 206.548 167.08 Q203.492 171.663 197.682 171.663 Q191.872 171.663 188.793 167.08 Q185.738 162.474 185.738 153.747 Q185.738 144.997 188.793 140.414 Q191.872 135.807 197.682 135.807 Z" fill="#000000" fill-rule="nonzero" fill-opacity="1"></path><path clip-path="url(#clip090)" d="M53.5277 1226.71 L71.3835 1226.71 L71.3835 1218.63 Q71.3835 1214.14 69.06 1211.69 Q66.7365 1209.24 62.4397 1209.24 Q58.1747 1209.24 55.8512 1211.69 Q53.5277 1214.14 53.5277 1218.63 L53.5277 1226.71 M48.2442 1233.14 L48.2442 1218.63 Q48.2442 1210.64 51.8726 1206.57 Q55.4692 1202.46 62.4397 1202.46 Q69.4738 1202.46 73.0704 1206.57 Q76.667 1210.64 76.667 1218.63 L76.667 1226.71 L95.7642 1226.71 L95.7642 1233.14 L48.2442 1233.14 Z" fill="#000000" fill-rule="nonzero" fill-opacity="1"></path><path clip-path="url(#clip090)" d="M65.5907 1174.58 Q65.0178 1175.56 64.7632 1176.74 Q64.4767 1177.89 64.4767 1179.29 Q64.4767 1184.25 67.7232 1186.93 Q70.9379 1189.57 76.9853 1189.57 L95.7642 1189.57 L95.7642 1195.46 L60.1162 1195.46 L60.1162 1189.57 L65.6544 1189.57 Q62.4079 1187.72 60.8483 1184.76 Q59.2568 1181.8 59.2568 1177.57 Q59.2568 1176.97 59.3523 1176.23 Q59.416 1175.5 59.5751 1174.61 L65.5907 1174.58 Z" fill="#000000" fill-rule="nonzero" fill-opacity="1"></path><path clip-path="url(#clip090)" d="M64.2221 1156.05 Q64.2221 1160.76 67.9142 1163.5 Q71.5745 1166.24 77.972 1166.24 Q84.3695 1166.24 88.0617 1163.53 Q91.7219 1160.8 91.7219 1156.05 Q91.7219 1151.37 88.0298 1148.64 Q84.3377 1145.9 77.972 1145.9 Q71.6381 1145.9 67.946 1148.64 Q64.2221 1151.37 64.2221 1156.05 M59.2568 1156.05 Q59.2568 1148.41 64.2221 1144.05 Q69.1873 1139.69 77.972 1139.69 Q86.7249 1139.69 91.7219 1144.05 Q96.6872 1148.41 96.6872 1156.05 Q96.6872 1163.72 91.7219 1168.08 Q86.7249 1172.41 77.972 1172.41 Q69.1873 1172.41 64.2221 1168.08 Q59.2568 1163.72 59.2568 1156.05 Z" fill="#000000" fill-rule="nonzero" fill-opacity="1"></path><path clip-path="url(#clip090)" d="M77.972 1104.4 Q71.5108 1104.4 67.8505 1107.07 Q64.1584 1109.71 64.1584 1114.36 Q64.1584 1119.01 67.8505 1121.68 Q71.5108 1124.32 77.972 1124.32 Q84.4332 1124.32 88.1253 1121.68 Q91.7856 1119.01 91.7856 1114.36 Q91.7856 1109.71 88.1253 1107.07 Q84.4332 1104.4 77.972 1104.4 M65.5271 1124.32 Q62.3442 1122.47 60.8164 1119.67 Q59.2568 1116.84 59.2568 1112.93 Q59.2568 1106.43 64.4131 1102.39 Q69.5693 1098.32 77.972 1098.32 Q86.3747 1098.32 91.531 1102.39 Q96.6872 1106.43 96.6872 1112.93 Q96.6872 1116.84 95.1594 1119.67 Q93.5998 1122.47 90.417 1124.32 L95.7642 1124.32 L95.7642 1130.21 L46.239 1130.21 L46.239 1124.32 L65.5271 1124.32 Z" fill="#000000" fill-rule="nonzero" fill-opacity="1"></path><path clip-path="url(#clip090)" d="M77.8447 1072.41 Q77.8447 1079.51 79.4679 1082.24 Q81.0912 1084.98 85.0061 1084.98 Q88.1253 1084.98 89.9714 1082.94 Q91.7856 1080.87 91.7856 1077.34 Q91.7856 1072.47 88.3481 1069.54 Q84.8788 1066.58 79.1497 1066.58 L77.8447 1066.58 L77.8447 1072.41 M75.4257 1060.73 L95.7642 1060.73 L95.7642 1066.58 L90.3533 1066.58 Q93.5998 1068.59 95.1594 1071.58 Q96.6872 1074.57 96.6872 1078.9 Q96.6872 1084.38 93.6316 1087.62 Q90.5443 1090.84 85.3881 1090.84 Q79.3725 1090.84 76.3169 1086.83 Q73.2614 1082.78 73.2614 1074.8 L73.2614 1066.58 L72.6885 1066.58 Q68.6462 1066.58 66.4501 1069.26 Q64.2221 1071.9 64.2221 1076.71 Q64.2221 1079.76 64.9541 1082.66 Q65.6862 1085.55 67.1503 1088.23 L61.7395 1088.23 Q60.4981 1085.01 59.8934 1081.99 Q59.2568 1078.97 59.2568 1076.1 Q59.2568 1068.37 63.2672 1064.55 Q67.2776 1060.73 75.4257 1060.73 Z" fill="#000000" fill-rule="nonzero" fill-opacity="1"></path><path clip-path="url(#clip090)" d="M77.972 1023.07 Q71.5108 1023.07 67.8505 1025.75 Q64.1584 1028.39 64.1584 1033.04 Q64.1584 1037.68 67.8505 1040.36 Q71.5108 1043 77.972 1043 Q84.4332 1043 88.1253 1040.36 Q91.7856 1037.68 91.7856 1033.04 Q91.7856 1028.39 88.1253 1025.75 Q84.4332 1023.07 77.972 1023.07 M65.5271 1043 Q62.3442 1041.15 60.8164 1038.35 Q59.2568 1035.52 59.2568 1031.6 Q59.2568 1025.11 64.4131 1021.07 Q69.5693 1016.99 77.972 1016.99 Q86.3747 1016.99 91.531 1021.07 Q96.6872 1025.11 96.6872 1031.6 Q96.6872 1035.52 95.1594 1038.35 Q93.5998 1041.15 90.417 1043 L95.7642 1043 L95.7642 1048.89 L46.239 1048.89 L46.239 1043 L65.5271 1043 Z" fill="#000000" fill-rule="nonzero" fill-opacity="1"></path><path clip-path="url(#clip090)" d="M60.1162 1007.29 L60.1162 1001.43 L95.7642 1001.43 L95.7642 1007.29 L60.1162 1007.29 M46.239 1007.29 L46.239 1001.43 L53.655 1001.43 L53.655 1007.29 L46.239 1007.29 Z" fill="#000000" fill-rule="nonzero" fill-opacity="1"></path><path clip-path="url(#clip090)" d="M46.239 989.177 L46.239 983.32 L95.7642 983.32 L95.7642 989.177 L46.239 989.177 Z" fill="#000000" fill-rule="nonzero" fill-opacity="1"></path><path clip-path="url(#clip090)" d="M60.1162 971.066 L60.1162 965.21 L95.7642 965.21 L95.7642 971.066 L60.1162 971.066 M46.239 971.066 L46.239 965.21 L53.655 965.21 L53.655 971.066 L46.239 971.066 Z" fill="#000000" fill-rule="nonzero" fill-opacity="1"></path><path clip-path="url(#clip090)" d="M49.9947 947.163 L60.1162 947.163 L60.1162 935.1 L64.6677 935.1 L64.6677 947.163 L84.0194 947.163 Q88.3799 947.163 89.6213 945.985 Q90.8626 944.776 90.8626 941.116 L90.8626 935.1 L95.7642 935.1 L95.7642 941.116 Q95.7642 947.895 93.2497 950.473 Q90.7034 953.051 84.0194 953.051 L64.6677 953.051 L64.6677 957.348 L60.1162 957.348 L60.1162 953.051 L49.9947 953.051 L49.9947 947.163 Z" fill="#000000" fill-rule="nonzero" fill-opacity="1"></path><path clip-path="url(#clip090)" d="M99.0743 912.565 Q105.44 915.048 107.382 917.403 Q109.323 919.759 109.323 923.705 L109.323 928.384 L104.422 928.384 L104.422 924.947 Q104.422 922.528 103.276 921.191 Q102.13 919.854 97.8648 918.231 L95.1912 917.181 L60.1162 931.599 L60.1162 925.392 L87.998 914.252 L60.1162 903.112 L60.1162 896.906 L99.0743 912.565 Z" fill="#000000" fill-rule="nonzero" fill-opacity="1"></path><path clip-path="url(#clip090)" d="M95.7642 855.592 L48.2442 873.735 L48.2442 867.019 L88.2526 851.964 L48.2442 836.877 L48.2442 830.193 L95.7642 848.304 L95.7642 855.592 Z" fill="#000000" fill-rule="nonzero" fill-opacity="1"></path><path clip-path="url(#clip090)" d="M77.8447 812.369 Q77.8447 819.467 79.4679 822.204 Q81.0912 824.941 85.0061 824.941 Q88.1253 824.941 89.9714 822.904 Q91.7856 820.836 91.7856 817.303 Q91.7856 812.433 88.3481 809.505 Q84.8788 806.545 79.1497 806.545 L77.8447 806.545 L77.8447 812.369 M75.4257 800.688 L95.7642 800.688 L95.7642 806.545 L90.3533 806.545 Q93.5998 808.55 95.1594 811.542 Q96.6872 814.534 96.6872 818.862 Q96.6872 824.337 93.6316 827.583 Q90.5443 830.798 85.3881 830.798 Q79.3725 830.798 76.3169 826.788 Q73.2614 822.745 73.2614 814.756 L73.2614 806.545 L72.6885 806.545 Q68.6462 806.545 66.4501 809.218 Q64.2221 811.86 64.2221 816.666 Q64.2221 819.722 64.9541 822.618 Q65.6862 825.514 67.1503 828.188 L61.7395 828.188 Q60.4981 824.973 59.8934 821.95 Q59.2568 818.926 59.2568 816.061 Q59.2568 808.327 63.2672 804.508 Q67.2776 800.688 75.4257 800.688 Z" fill="#000000" fill-rule="nonzero" fill-opacity="1"></path><path clip-path="url(#clip090)" d="M46.239 788.625 L46.239 782.769 L95.7642 782.769 L95.7642 788.625 L46.239 788.625 Z" fill="#000000" fill-rule="nonzero" fill-opacity="1"></path><path clip-path="url(#clip090)" d="M81.6959 771.119 L60.1162 771.119 L60.1162 765.263 L81.4731 765.263 Q86.5339 765.263 89.0802 763.29 Q91.5946 761.316 91.5946 757.37 Q91.5946 752.627 88.5709 749.89 Q85.5472 747.121 80.3273 747.121 L60.1162 747.121 L60.1162 741.264 L95.7642 741.264 L95.7642 747.121 L90.2896 747.121 Q93.5362 749.253 95.1276 752.086 Q96.6872 754.887 96.6872 758.611 Q96.6872 764.754 92.8678 767.937 Q89.0483 771.119 81.6959 771.119 M59.2568 756.383 L59.2568 756.383 Z" fill="#000000" fill-rule="nonzero" fill-opacity="1"></path><path clip-path="url(#clip090)" d="M76.4761 698.71 L79.3406 698.71 L79.3406 725.636 Q85.3881 725.255 88.5709 722.008 Q91.7219 718.73 91.7219 712.905 Q91.7219 709.531 90.8944 706.38 Q90.0669 703.197 88.4118 700.078 L93.9499 700.078 Q95.2867 703.229 95.987 706.539 Q96.6872 709.85 96.6872 713.255 Q96.6872 721.785 91.7219 726.782 Q86.7567 731.748 78.2903 731.748 Q69.5374 731.748 64.4131 727.037 Q59.2568 722.294 59.2568 714.274 Q59.2568 707.08 63.9038 702.911 Q68.5189 698.71 76.4761 698.71 M74.7573 704.566 Q69.9512 704.63 67.0866 707.271 Q64.2221 709.881 64.2221 714.21 Q64.2221 719.112 66.9912 722.072 Q69.7602 725 74.7892 725.446 L74.7573 704.566 Z" fill="#000000" fill-rule="nonzero" fill-opacity="1"></path><path clip-path="url(#clip090)" d="M438.709 43.6931 L438.709 65.8515 L451.834 65.8515 Q458.437 65.8515 461.597 63.1374 Q464.797 60.3828 464.797 54.752 Q464.797 49.0808 461.597 46.4072 Q458.437 43.6931 451.834 43.6931 L438.709 43.6931 M438.709 18.8205 L438.709 37.0496 L450.821 37.0496 Q456.817 37.0496 459.733 34.8216 Q462.69 32.5531 462.69 27.935 Q462.69 23.3575 459.733 21.089 Q456.817 18.8205 450.821 18.8205 L438.709 18.8205 M430.526 12.096 L451.429 12.096 Q460.787 12.096 465.85 15.9849 Q470.914 19.8737 470.914 27.0438 Q470.914 32.5936 468.321 35.8748 Q465.729 39.156 460.705 39.9662 Q466.741 41.2625 470.063 45.3944 Q473.425 49.4858 473.425 55.6432 Q473.425 63.745 467.916 68.1605 Q462.407 72.576 452.239 72.576 L430.526 72.576 L430.526 12.096 Z" fill="#000000" fill-rule="nonzero" fill-opacity="1"></path><path clip-path="url(#clip090)" d="M525.925 48.0275 L525.925 51.6733 L491.654 51.6733 Q492.141 59.3701 496.272 63.421 Q500.445 67.4314 507.858 67.4314 Q512.152 67.4314 516.162 66.3781 Q520.213 65.3249 524.183 63.2184 L524.183 70.267 Q520.173 71.9684 515.96 72.8596 Q511.747 73.7508 507.412 73.7508 Q496.556 73.7508 490.196 67.4314 Q483.877 61.1119 483.877 50.3365 Q483.877 39.1965 489.872 32.6746 Q495.908 26.1121 506.116 26.1121 Q515.271 26.1121 520.578 32.0264 Q525.925 37.9003 525.925 48.0275 M518.471 45.84 Q518.39 39.7232 515.028 36.0774 Q511.706 32.4315 506.197 32.4315 Q499.959 32.4315 496.191 35.9558 Q492.465 39.4801 491.897 45.8805 L518.471 45.84 Z" fill="#000000" fill-rule="nonzero" fill-opacity="1"></path><path clip-path="url(#clip090)" d="M538.159 9.54393 L545.612 9.54393 L545.612 72.576 L538.159 72.576 L538.159 9.54393 Z" fill="#000000" fill-rule="nonzero" fill-opacity="1"></path><path clip-path="url(#clip090)" d="M561.208 27.2059 L568.662 27.2059 L568.662 72.576 L561.208 72.576 L561.208 27.2059 M561.208 9.54393 L568.662 9.54393 L568.662 18.9825 L561.208 18.9825 L561.208 9.54393 Z" fill="#000000" fill-rule="nonzero" fill-opacity="1"></path><path clip-path="url(#clip090)" d="M623.066 48.0275 L623.066 51.6733 L588.795 51.6733 Q589.281 59.3701 593.413 63.421 Q597.586 67.4314 604.999 67.4314 Q609.293 67.4314 613.303 66.3781 Q617.354 65.3249 621.324 63.2184 L621.324 70.267 Q617.313 71.9684 613.101 72.8596 Q608.888 73.7508 604.553 73.7508 Q593.697 73.7508 587.337 67.4314 Q581.017 61.1119 581.017 50.3365 Q581.017 39.1965 587.013 32.6746 Q593.049 26.1121 603.257 26.1121 Q612.412 26.1121 617.719 32.0264 Q623.066 37.9003 623.066 48.0275 M615.612 45.84 Q615.531 39.7232 612.169 36.0774 Q608.847 32.4315 603.338 32.4315 Q597.099 32.4315 593.332 35.9558 Q589.605 39.4801 589.038 45.8805 L615.612 45.84 Z" fill="#000000" fill-rule="nonzero" fill-opacity="1"></path><path clip-path="url(#clip090)" d="M658.268 9.54393 L658.268 15.7418 L651.138 15.7418 Q647.128 15.7418 645.548 17.3622 Q644.009 18.9825 644.009 23.1955 L644.009 27.2059 L656.283 27.2059 L656.283 32.9987 L644.009 32.9987 L644.009 72.576 L636.515 72.576 L636.515 32.9987 L629.385 32.9987 L629.385 27.2059 L636.515 27.2059 L636.515 24.0462 Q636.515 16.471 640.039 13.0277 Q643.563 9.54393 651.22 9.54393 L658.268 9.54393 Z" fill="#000000" fill-rule="nonzero" fill-opacity="1"></path><path clip-path="url(#clip090)" d="M708.459 32.4315 Q702.463 32.4315 698.98 37.1306 Q695.496 41.7891 695.496 49.9314 Q695.496 58.0738 698.939 62.7728 Q702.423 67.4314 708.459 67.4314 Q714.414 67.4314 717.897 62.7323 Q721.381 58.0333 721.381 49.9314 Q721.381 41.8701 717.897 37.1711 Q714.414 32.4315 708.459 32.4315 M708.459 26.1121 Q718.181 26.1121 723.731 32.4315 Q729.28 38.7509 729.28 49.9314 Q729.28 61.0714 723.731 67.4314 Q718.181 73.7508 708.459 73.7508 Q698.696 73.7508 693.146 67.4314 Q687.637 61.0714 687.637 49.9314 Q687.637 38.7509 693.146 32.4315 Q698.696 26.1121 708.459 26.1121 Z" fill="#000000" fill-rule="nonzero" fill-opacity="1"></path><path clip-path="url(#clip090)" d="M736.289 27.2059 L744.188 27.2059 L758.366 65.2844 L772.544 27.2059 L780.443 27.2059 L763.43 72.576 L753.302 72.576 L736.289 27.2059 Z" fill="#000000" fill-rule="nonzero" fill-opacity="1"></path><path clip-path="url(#clip090)" d="M829.54 48.0275 L829.54 51.6733 L795.27 51.6733 Q795.756 59.3701 799.888 63.421 Q804.06 67.4314 811.473 67.4314 Q815.767 67.4314 819.778 66.3781 Q823.829 65.3249 827.798 63.2184 L827.798 70.267 Q823.788 71.9684 819.575 72.8596 Q815.362 73.7508 811.028 73.7508 Q800.171 73.7508 793.811 67.4314 Q787.492 61.1119 787.492 50.3365 Q787.492 39.1965 793.487 32.6746 Q799.523 26.1121 809.731 26.1121 Q818.886 26.1121 824.193 32.0264 Q829.54 37.9003 829.54 48.0275 M822.087 45.84 Q822.006 39.7232 818.643 36.0774 Q815.322 32.4315 809.812 32.4315 Q803.574 32.4315 799.807 35.9558 Q796.08 39.4801 795.513 45.8805 L822.087 45.84 Z" fill="#000000" fill-rule="nonzero" fill-opacity="1"></path><path clip-path="url(#clip090)" d="M868.064 34.1734 Q866.809 33.4443 865.31 33.1202 Q863.851 32.7556 862.069 32.7556 Q855.75 32.7556 852.347 36.8875 Q848.985 40.9789 848.985 48.6757 L848.985 72.576 L841.49 72.576 L841.49 27.2059 L848.985 27.2059 L848.985 34.2544 Q851.334 30.1225 855.102 28.1376 Q858.869 26.1121 864.257 26.1121 Q865.026 26.1121 865.958 26.2337 Q866.89 26.3147 868.024 26.5172 L868.064 34.1734 Z" fill="#000000" fill-rule="nonzero" fill-opacity="1"></path><path clip-path="url(#clip090)" d="M922.873 49.7694 Q913.84 49.7694 910.356 51.8354 Q906.872 53.9013 906.872 58.8839 Q906.872 62.8538 909.465 65.2034 Q912.098 67.5124 916.594 67.5124 Q922.792 67.5124 926.519 63.1374 Q930.286 58.7219 930.286 51.4303 L930.286 49.7694 L922.873 49.7694 M937.74 46.6907 L937.74 72.576 L930.286 72.576 L930.286 65.6895 Q927.734 69.8214 923.926 71.8063 Q920.119 73.7508 914.609 73.7508 Q907.642 73.7508 903.51 69.8619 Q899.418 65.9325 899.418 59.3701 Q899.418 51.7138 904.523 47.825 Q909.667 43.9361 919.835 43.9361 L930.286 43.9361 L930.286 43.2069 Q930.286 38.0623 926.884 35.2672 Q923.521 32.4315 917.404 32.4315 Q913.516 32.4315 909.829 33.3632 Q906.143 34.295 902.74 36.1584 L902.74 29.2718 Q906.832 27.692 910.68 26.9223 Q914.528 26.1121 918.174 26.1121 Q928.018 26.1121 932.879 31.2163 Q937.74 36.3204 937.74 46.6907 Z" fill="#000000" fill-rule="nonzero" fill-opacity="1"></path><path clip-path="url(#clip090)" d="M953.093 9.54393 L960.547 9.54393 L960.547 72.576 L953.093 72.576 L953.093 9.54393 Z" fill="#000000" fill-rule="nonzero" fill-opacity="1"></path><path clip-path="url(#clip090)" d="M976.143 9.54393 L983.596 9.54393 L983.596 72.576 L976.143 72.576 L976.143 9.54393 Z" fill="#000000" fill-rule="nonzero" fill-opacity="1"></path><path clip-path="url(#clip090)" d="M1060.89 35.9153 Q1063.68 30.8922 1067.57 28.5022 Q1071.46 26.1121 1076.73 26.1121 Q1083.82 26.1121 1087.66 31.0947 Q1091.51 36.0368 1091.51 45.1919 L1091.51 72.576 L1084.02 72.576 L1084.02 45.4349 Q1084.02 38.913 1081.71 35.7533 Q1079.4 32.5936 1074.66 32.5936 Q1068.87 32.5936 1065.51 36.4419 Q1062.14 40.2903 1062.14 46.9338 L1062.14 72.576 L1054.65 72.576 L1054.65 45.4349 Q1054.65 38.8725 1052.34 35.7533 Q1050.03 32.5936 1045.21 32.5936 Q1039.5 32.5936 1036.14 36.4824 Q1032.77 40.3308 1032.77 46.9338 L1032.77 72.576 L1025.28 72.576 L1025.28 27.2059 L1032.77 27.2059 L1032.77 34.2544 Q1035.33 30.082 1038.89 28.0971 Q1042.46 26.1121 1047.36 26.1121 Q1052.3 26.1121 1055.74 28.6237 Q1059.23 31.1352 1060.89 35.9153 Z" fill="#000000" fill-rule="nonzero" fill-opacity="1"></path><path clip-path="url(#clip090)" d="M1123.96 32.4315 Q1117.96 32.4315 1114.48 37.1306 Q1111 41.7891 1111 49.9314 Q1111 58.0738 1114.44 62.7728 Q1117.92 67.4314 1123.96 67.4314 Q1129.91 67.4314 1133.4 62.7323 Q1136.88 58.0333 1136.88 49.9314 Q1136.88 41.8701 1133.4 37.1711 Q1129.91 32.4315 1123.96 32.4315 M1123.96 26.1121 Q1133.68 26.1121 1139.23 32.4315 Q1144.78 38.7509 1144.78 49.9314 Q1144.78 61.0714 1139.23 67.4314 Q1133.68 73.7508 1123.96 73.7508 Q1114.2 73.7508 1108.65 67.4314 Q1103.14 61.0714 1103.14 49.9314 Q1103.14 38.7509 1108.65 32.4315 Q1114.2 26.1121 1123.96 26.1121 Z" fill="#000000" fill-rule="nonzero" fill-opacity="1"></path><path clip-path="url(#clip090)" d="M1186.99 34.0924 L1186.99 9.54393 L1194.45 9.54393 L1194.45 72.576 L1186.99 72.576 L1186.99 65.7705 Q1184.64 69.8214 1181.04 71.8063 Q1177.47 73.7508 1172.45 73.7508 Q1164.23 73.7508 1159.04 67.1883 Q1153.9 60.6258 1153.9 49.9314 Q1153.9 39.2371 1159.04 32.6746 Q1164.23 26.1121 1172.45 26.1121 Q1177.47 26.1121 1181.04 28.0971 Q1184.64 30.0415 1186.99 34.0924 M1161.59 49.9314 Q1161.59 58.1548 1164.96 62.8538 Q1168.36 67.5124 1174.27 67.5124 Q1180.19 67.5124 1183.59 62.8538 Q1186.99 58.1548 1186.99 49.9314 Q1186.99 41.7081 1183.59 37.0496 Q1180.19 32.3505 1174.27 32.3505 Q1168.36 32.3505 1164.96 37.0496 Q1161.59 41.7081 1161.59 49.9314 Z" fill="#000000" fill-rule="nonzero" fill-opacity="1"></path><path clip-path="url(#clip090)" d="M1248.61 48.0275 L1248.61 51.6733 L1214.34 51.6733 Q1214.82 59.3701 1218.95 63.421 Q1223.13 67.4314 1230.54 67.4314 Q1234.83 67.4314 1238.84 66.3781 Q1242.89 65.3249 1246.86 63.2184 L1246.86 70.267 Q1242.85 71.9684 1238.64 72.8596 Q1234.43 73.7508 1230.09 73.7508 Q1219.24 73.7508 1212.88 67.4314 Q1206.56 61.1119 1206.56 50.3365 Q1206.56 39.1965 1212.55 32.6746 Q1218.59 26.1121 1228.8 26.1121 Q1237.95 26.1121 1243.26 32.0264 Q1248.61 37.9003 1248.61 48.0275 M1241.15 45.84 Q1241.07 39.7232 1237.71 36.0774 Q1234.39 32.4315 1228.88 32.4315 Q1222.64 32.4315 1218.87 35.9558 Q1215.15 39.4801 1214.58 45.8805 L1241.15 45.84 Z" fill="#000000" fill-rule="nonzero" fill-opacity="1"></path><path clip-path="url(#clip090)" d="M1260.84 9.54393 L1268.29 9.54393 L1268.29 72.576 L1260.84 72.576 L1260.84 9.54393 Z" fill="#000000" fill-rule="nonzero" fill-opacity="1"></path><path clip-path="url(#clip090)" d="M1312.81 28.5427 L1312.81 35.5912 Q1309.65 33.9709 1306.25 33.1607 Q1302.85 32.3505 1299.2 32.3505 Q1293.65 32.3505 1290.86 34.0519 Q1288.1 35.7533 1288.1 39.156 Q1288.1 41.7486 1290.09 43.2475 Q1292.07 44.7058 1298.07 46.0426 L1300.62 46.6097 Q1308.56 48.3111 1311.88 51.4303 Q1315.24 54.509 1315.24 60.0587 Q1315.24 66.3781 1310.22 70.0644 Q1305.24 73.7508 1296.49 73.7508 Q1292.84 73.7508 1288.87 73.0216 Q1284.94 72.3329 1280.57 70.9151 L1280.57 63.2184 Q1284.7 65.3654 1288.71 66.4591 Q1292.72 67.5124 1296.65 67.5124 Q1301.92 67.5124 1304.75 65.73 Q1307.59 63.9071 1307.59 60.6258 Q1307.59 57.5877 1305.52 55.9673 Q1303.5 54.3469 1296.57 52.8481 L1293.98 52.2405 Q1287.05 50.7821 1283.97 47.7845 Q1280.89 44.7463 1280.89 39.4801 Q1280.89 33.0797 1285.43 29.5959 Q1289.97 26.1121 1298.31 26.1121 Q1302.44 26.1121 1306.09 26.7198 Q1309.73 27.3274 1312.81 28.5427 Z" fill="#000000" fill-rule="nonzero" fill-opacity="1"></path><path clip-path="url(#clip090)" d="M1349.15 27.2059 L1356.6 27.2059 L1365.92 62.6108 L1375.2 27.2059 L1383.99 27.2059 L1393.3 62.6108 L1402.58 27.2059 L1410.03 27.2059 L1398.17 72.576 L1389.38 72.576 L1379.61 35.3887 L1369.81 72.576 L1361.02 72.576 L1349.15 27.2059 Z" fill="#000000" fill-rule="nonzero" fill-opacity="1"></path><path clip-path="url(#clip090)" d="M1421.34 27.2059 L1428.79 27.2059 L1428.79 72.576 L1421.34 72.576 L1421.34 27.2059 M1421.34 9.54393 L1428.79 9.54393 L1428.79 18.9825 L1421.34 18.9825 L1421.34 9.54393 Z" fill="#000000" fill-rule="nonzero" fill-opacity="1"></path><path clip-path="url(#clip090)" d="M1451.76 14.324 L1451.76 27.2059 L1467.11 27.2059 L1467.11 32.9987 L1451.76 32.9987 L1451.76 57.6282 Q1451.76 63.1779 1453.26 64.7578 Q1454.8 66.3376 1459.46 66.3376 L1467.11 66.3376 L1467.11 72.576 L1459.46 72.576 Q1450.83 72.576 1447.55 69.3758 Q1444.27 66.1351 1444.27 57.6282 L1444.27 32.9987 L1438.8 32.9987 L1438.8 27.2059 L1444.27 27.2059 L1444.27 14.324 L1451.76 14.324 Z" fill="#000000" fill-rule="nonzero" fill-opacity="1"></path><path clip-path="url(#clip090)" d="M1514.63 45.1919 L1514.63 72.576 L1507.18 72.576 L1507.18 45.4349 Q1507.18 38.994 1504.66 35.7938 Q1502.15 32.5936 1497.13 32.5936 Q1491.09 32.5936 1487.61 36.4419 Q1484.13 40.2903 1484.13 46.9338 L1484.13 72.576 L1476.63 72.576 L1476.63 9.54393 L1484.13 9.54393 L1484.13 34.2544 Q1486.8 30.163 1490.4 28.1376 Q1494.05 26.1121 1498.79 26.1121 Q1506.61 26.1121 1510.62 30.9732 Q1514.63 35.7938 1514.63 45.1919 Z" fill="#000000" fill-rule="nonzero" fill-opacity="1"></path><path clip-path="url(#clip090)" d="M1563.24 14.324 L1563.24 27.2059 L1578.59 27.2059 L1578.59 32.9987 L1563.24 32.9987 L1563.24 57.6282 Q1563.24 63.1779 1564.74 64.7578 Q1566.28 66.3376 1570.94 66.3376 L1578.59 66.3376 L1578.59 72.576 L1570.94 72.576 Q1562.31 72.576 1559.03 69.3758 Q1555.75 66.1351 1555.75 57.6282 L1555.75 32.9987 L1550.28 32.9987 L1550.28 27.2059 L1555.75 27.2059 L1555.75 14.324 L1563.24 14.324 Z" fill="#000000" fill-rule="nonzero" fill-opacity="1"></path><path clip-path="url(#clip090)" d="M1588.4 27.2059 L1595.85 27.2059 L1595.85 72.576 L1588.4 72.576 L1588.4 27.2059 M1588.4 9.54393 L1595.85 9.54393 L1595.85 18.9825 L1588.4 18.9825 L1588.4 9.54393 Z" fill="#000000" fill-rule="nonzero" fill-opacity="1"></path><path clip-path="url(#clip090)" d="M1646.77 35.9153 Q1649.56 30.8922 1653.45 28.5022 Q1657.34 26.1121 1662.61 26.1121 Q1669.7 26.1121 1673.55 31.0947 Q1677.39 36.0368 1677.39 45.1919 L1677.39 72.576 L1669.9 72.576 L1669.9 45.4349 Q1669.9 38.913 1667.59 35.7533 Q1665.28 32.5936 1660.54 32.5936 Q1654.75 32.5936 1651.39 36.4419 Q1648.03 40.2903 1648.03 46.9338 L1648.03 72.576 L1640.53 72.576 L1640.53 45.4349 Q1640.53 38.8725 1638.22 35.7533 Q1635.91 32.5936 1631.09 32.5936 Q1625.38 32.5936 1622.02 36.4824 Q1618.66 40.3308 1618.66 46.9338 L1618.66 72.576 L1611.16 72.576 L1611.16 27.2059 L1618.66 27.2059 L1618.66 34.2544 Q1621.21 30.082 1624.77 28.0971 Q1628.34 26.1121 1633.24 26.1121 Q1638.18 26.1121 1641.63 28.6237 Q1645.11 31.1352 1646.77 35.9153 Z" fill="#000000" fill-rule="nonzero" fill-opacity="1"></path><path clip-path="url(#clip090)" d="M1731.07 48.0275 L1731.07 51.6733 L1696.8 51.6733 Q1697.28 59.3701 1701.42 63.421 Q1705.59 67.4314 1713 67.4314 Q1717.3 67.4314 1721.31 66.3781 Q1725.36 65.3249 1729.33 63.2184 L1729.33 70.267 Q1725.32 71.9684 1721.1 72.8596 Q1716.89 73.7508 1712.56 73.7508 Q1701.7 73.7508 1695.34 67.4314 Q1689.02 61.1119 1689.02 50.3365 Q1689.02 39.1965 1695.02 32.6746 Q1701.05 26.1121 1711.26 26.1121 Q1720.42 26.1121 1725.72 32.0264 Q1731.07 37.9003 1731.07 48.0275 M1723.62 45.84 Q1723.53 39.7232 1720.17 36.0774 Q1716.85 32.4315 1711.34 32.4315 Q1705.1 32.4315 1701.34 35.9558 Q1697.61 39.4801 1697.04 45.8805 L1723.62 45.84 Z" fill="#000000" fill-rule="nonzero" fill-opacity="1"></path><path clip-path="url(#clip092)" d="M288.111 1236.66 L308.569 1236.66 L329.027 1237.42 L349.484 1235.96 L369.942 1239.42 L390.4 1239.04 L410.857 1239.04 L431.315 1233.97 L451.773 1233.97 L472.231 1245.47 L492.688 1265.32 L513.146 1243.88 L533.604 1243.88 L554.061 1261.71 L574.519 1230.42 L594.977 1251.95 L615.435 1140.87 L635.892 1218.25 L656.35 1251.58 L676.808 1251.58 L697.266 1268.71 L717.723 1262.83 L738.181 1262.52 L758.639 1262.52 L779.096 1275.55 L799.554 1275.55 L820.012 1275.55 L840.47 1154.21 L860.927 1154.21 L881.385 1152.43 L901.843 1276.8 L922.3 697.436 L942.758 606.541 L963.216 598.62 L983.674 504.291 L1004.13 478.909 L1024.59 478.909 L1045.05 456.157 L1065.5 456.157 L1085.96 456.157 L1106.42 456.157 L1126.88 548.597 L1147.34 515.553 L1167.79 475 L1188.25 475 L1208.71 475 L1229.17 477.733 L1249.62 486.238 L1270.08 468.225 L1290.54 508.322 L1311 539.467 L1331.45 539.467 L1351.91 539.467 L1372.37 539.467 L1392.83 511.209 L1413.29 493.295 L1433.74 523.34 L1454.2 522.17 L1474.66 522.17 L1495.12 522.17 L1515.57 522.17 L1536.03 522.17 L1556.49 430.088 L1576.95 430.088 L1597.41 402.872 L1617.86 402.872 L1638.32 409.496 L1658.78 409.496 L1679.24 393.3 L1699.69 393.3 L1720.15 413.371 L1740.61 413.371 L1761.07 580.758 L1781.52 580.758 L1801.98 580.758 L1822.44 580.758 L1842.9 640.228 L1863.36 656.025 L1883.81 551.202 L1904.27 551.202 L1904.27 551.202 L1883.81 551.202 L1863.36 656.025 L1842.9 640.228 L1822.44 580.758 L1801.98 580.758 L1781.52 580.758 L1761.07 580.758 L1740.61 413.371 L1720.15 413.371 L1699.69 393.3 L1679.24 393.3 L1658.78 409.496 L1638.32 409.496 L1617.86 402.872 L1597.41 402.872 L1576.95 430.088 L1556.49 430.088 L1536.03 522.17 L1515.57 522.17 L1495.12 522.17 L1474.66 522.17 L1454.2 522.17 L1433.74 523.34 L1413.29 493.295 L1392.83 511.209 L1372.37 539.467 L1351.91 539.467 L1331.45 539.467 L1311 539.467 L1290.54 508.322 L1270.08 468.225 L1249.62 486.238 L1229.17 477.733 L1208.71 475 L1188.25 475 L1167.79 475 L1147.34 515.553 L1126.88 548.597 L1106.42 456.157 L1085.96 456.157 L1065.5 456.157 L1045.05 456.157 L1024.59 478.909 L1004.13 478.909 L983.674 504.291 L963.216 598.62 L942.758 606.541 L922.3 697.436 L901.843 1276.8 L881.385 1152.43 L860.927 1154.21 L840.47 1154.21 L820.012 1275.55 L799.554 1275.55 L779.096 1275.55 L758.639 1262.52 L738.181 1262.52 L717.723 1262.83 L697.266 1268.71 L676.808 1251.58 L656.35 1251.58 L635.892 1218.25 L615.435 1140.87 L594.977 1251.95 L574.519 1230.42 L554.061 1261.71 L533.604 1243.88 L513.146 1243.88 L492.688 1265.32 L472.231 1245.47 L451.773 1233.97 L431.315 1233.97 L410.857 1239.04 L390.4 1239.04 L369.942 1239.42 L349.484 1235.96 L329.027 1237.42 L308.569 1236.66 L288.111 1236.66  Z" fill="#000000" fill-rule="evenodd" fill-opacity="0.2"></path>
<polyline clip-path="url(#clip092)" style="stroke:#000000; stroke-linecap:round; stroke-linejoin:round; stroke-width:20; stroke-opacity:1; fill:none" points="288.111,1236.66 308.569,1236.66 329.027,1237.42 349.484,1235.96 369.942,1239.42 390.4,1239.04 410.857,1239.04 431.315,1233.97 451.773,1233.97 472.231,1245.47 492.688,1265.32 513.146,1243.88 533.604,1243.88 554.061,1261.71 574.519,1230.42 594.977,1251.95 615.435,1140.87 635.892,1218.25 656.35,1251.58 676.808,1251.58 697.266,1268.71 717.723,1262.83 738.181,1262.52 758.639,1262.52 779.096,1275.55 799.554,1275.55 820.012,1275.55 840.47,1154.21 860.927,1154.21 881.385,1152.43 901.843,1276.8 922.3,697.436 942.758,606.541 963.216,598.62 983.674,504.291 1004.13,478.909 1024.59,478.909 1045.05,456.157 1065.5,456.157 1085.96,456.157 1106.42,456.157 1126.88,548.597 1147.34,515.553 1167.79,475 1188.25,475 1208.71,475 1229.17,477.733 1249.62,486.238 1270.08,468.225 1290.54,508.322 1311,539.467 1331.45,539.467 1351.91,539.467 1372.37,539.467 1392.83,511.209 1413.29,493.295 1433.74,523.34 1454.2,522.17 1474.66,522.17 1495.12,522.17 1515.57,522.17 1536.03,522.17 1556.49,430.088 1576.95,430.088 1597.41,402.872 1617.86,402.872 1638.32,409.496 1658.78,409.496 1679.24,393.3 1699.69,393.3 1720.15,413.371 1740.61,413.371 1761.07,580.758 1781.52,580.758 1801.98,580.758 1822.44,580.758 1842.9,640.228 1863.36,656.025 1883.81,551.202 1904.27,551.202 "></polyline>
<path clip-path="url(#clip092)" d="M288.111 1236.66 L308.569 1236.66 L329.027 1237.04 L349.484 1236.31 L369.942 1237.98 L390.4 1237.73 L410.857 1237.73 L431.315 1235.18 L451.773 1235.18 L472.231 1240.72 L492.688 1251.04 L513.146 1239.55 L533.604 1239.55 L554.061 1248.82 L574.519 1232.21 L594.977 1242.7 L615.435 1193.82 L635.892 1224.96 L656.35 1241 L676.808 1241 L697.266 1249.8 L717.723 1246.42 L738.181 1244.23 L758.639 1244.23 L779.096 1249.03 L799.554 1249.03 L820.012 1249.03 L840.47 1191.67 L860.927 1191.67 L881.385 1190.52 L901.843 1248.18 L922.3 1257.27 L942.758 1332.43 L963.216 1339.58 L983.674 1428.96 L1004.13 1453.83 L1024.59 1453.83 L1045.05 1476.27 L1065.5 1476.27 L1085.96 1476.27 L1106.42 1476.27 L1126.88 1385.71 L1147.34 1417.61 L1167.79 1457.46 L1188.25 1457.46 L1208.71 1457.46 L1229.17 1454.71 L1249.62 1446.27 L1270.08 1464.09 L1290.54 1424.39 L1311 1393.81 L1331.45 1393.81 L1351.91 1393.81 L1372.37 1393.81 L1392.83 1421.4 L1413.29 1439.06 L1433.74 1409.34 L1454.2 1410.42 L1474.66 1410.42 L1495.12 1410.42 L1515.57 1410.42 L1536.03 1410.42 L1556.49 1501.88 L1576.95 1501.88 L1597.41 1529.04 L1617.86 1529.04 L1638.32 1522.43 L1658.78 1522.43 L1679.24 1538.59 L1699.69 1538.59 L1720.15 1518.54 L1740.61 1518.54 L1761.07 1352.15 L1781.52 1352.15 L1801.98 1352.15 L1822.44 1352.15 L1842.9 1293.88 L1863.36 1278.48 L1883.81 1381.22 L1904.27 1381.22 L1904.27 1381.22 L1883.81 1381.22 L1863.36 1278.48 L1842.9 1293.88 L1822.44 1352.15 L1801.98 1352.15 L1781.52 1352.15 L1761.07 1352.15 L1740.61 1518.54 L1720.15 1518.54 L1699.69 1538.59 L1679.24 1538.59 L1658.78 1522.43 L1638.32 1522.43 L1617.86 1529.04 L1597.41 1529.04 L1576.95 1501.88 L1556.49 1501.88 L1536.03 1410.42 L1515.57 1410.42 L1495.12 1410.42 L1474.66 1410.42 L1454.2 1410.42 L1433.74 1409.34 L1413.29 1439.06 L1392.83 1421.4 L1372.37 1393.81 L1351.91 1393.81 L1331.45 1393.81 L1311 1393.81 L1290.54 1424.39 L1270.08 1464.09 L1249.62 1446.27 L1229.17 1454.71 L1208.71 1457.46 L1188.25 1457.46 L1167.79 1457.46 L1147.34 1417.61 L1126.88 1385.71 L1106.42 1476.27 L1085.96 1476.27 L1065.5 1476.27 L1045.05 1476.27 L1024.59 1453.83 L1004.13 1453.83 L983.674 1428.96 L963.216 1339.58 L942.758 1332.43 L922.3 1257.27 L901.843 1248.18 L881.385 1190.52 L860.927 1191.67 L840.47 1191.67 L820.012 1249.03 L799.554 1249.03 L779.096 1249.03 L758.639 1244.23 L738.181 1244.23 L717.723 1246.42 L697.266 1249.8 L676.808 1241 L656.35 1241 L635.892 1224.96 L615.435 1193.82 L594.977 1242.7 L574.519 1232.21 L554.061 1248.82 L533.604 1239.55 L513.146 1239.55 L492.688 1251.04 L472.231 1240.72 L451.773 1235.18 L431.315 1235.18 L410.857 1237.73 L390.4 1237.73 L369.942 1237.98 L349.484 1236.31 L329.027 1237.04 L308.569 1236.66 L288.111 1236.66  Z" fill="#ff0000" fill-rule="evenodd" fill-opacity="0.2"></path>
<polyline clip-path="url(#clip092)" style="stroke:#ff0000; stroke-linecap:round; stroke-linejoin:round; stroke-width:20; stroke-opacity:1; fill:none" points="288.111,1236.66 308.569,1236.66 329.027,1237.04 349.484,1236.31 369.942,1237.98 390.4,1237.73 410.857,1237.73 431.315,1235.18 451.773,1235.18 472.231,1240.72 492.688,1251.04 513.146,1239.55 533.604,1239.55 554.061,1248.82 574.519,1232.21 594.977,1242.7 615.435,1193.82 635.892,1224.96 656.35,1241 676.808,1241 697.266,1249.8 717.723,1246.42 738.181,1244.23 758.639,1244.23 779.096,1249.03 799.554,1249.03 820.012,1249.03 840.47,1191.67 860.927,1191.67 881.385,1190.52 901.843,1248.18 922.3,1257.27 942.758,1332.43 963.216,1339.58 983.674,1428.96 1004.13,1453.83 1024.59,1453.83 1045.05,1476.27 1065.5,1476.27 1085.96,1476.27 1106.42,1476.27 1126.88,1385.71 1147.34,1417.61 1167.79,1457.46 1188.25,1457.46 1208.71,1457.46 1229.17,1454.71 1249.62,1446.27 1270.08,1464.09 1290.54,1424.39 1311,1393.81 1331.45,1393.81 1351.91,1393.81 1372.37,1393.81 1392.83,1421.4 1413.29,1439.06 1433.74,1409.34 1454.2,1410.42 1474.66,1410.42 1495.12,1410.42 1515.57,1410.42 1536.03,1410.42 1556.49,1501.88 1576.95,1501.88 1597.41,1529.04 1617.86,1529.04 1638.32,1522.43 1658.78,1522.43 1679.24,1538.59 1699.69,1538.59 1720.15,1518.54 1740.61,1518.54 1761.07,1352.15 1781.52,1352.15 1801.98,1352.15 1822.44,1352.15 1842.9,1293.88 1863.36,1278.48 1883.81,1381.22 1904.27,1381.22 "></polyline>
<path clip-path="url(#clip092)" d="M288.111 1236.66 L308.569 1236.66 L329.027 1235.53 L349.484 1237.73 L369.942 1232.59 L390.4 1233.22 L410.857 1233.22 L431.315 1240.83 L451.773 1240.83 L472.231 1223.8 L492.688 1193.64 L513.146 1226.56 L533.604 1226.56 L554.061 1199.46 L574.519 1247.36 L594.977 1215.34 L615.435 1375.3 L635.892 1266.79 L656.35 1217.41 L676.808 1217.41 L697.266 1191.48 L717.723 1200.75 L738.181 1203.23 L758.639 1203.23 L779.096 1185.41 L799.554 1185.41 L820.012 1185.41 L840.47 1364.12 L860.927 1364.12 L881.385 1367.04 L901.843 1185.01 L922.3 1755.29 L942.758 1771.02 L963.216 1771.79 L983.674 1776.74 L1004.13 1777.25 L1024.59 1777.25 L1045.05 1777.56 L1065.5 1777.56 L1085.96 1777.56 L1106.42 1777.56 L1126.88 1775.68 L1147.34 1776.82 L1167.79 1777.53 L1188.25 1777.53 L1208.71 1777.53 L1229.17 1777.55 L1249.62 1777.48 L1270.08 1777.67 L1290.54 1777.28 L1311 1776.71 L1331.45 1776.71 L1351.91 1776.71 L1372.37 1776.71 L1392.83 1777.38 L1413.29 1777.64 L1433.74 1777.31 L1454.2 1777.4 L1474.66 1777.4 L1495.12 1777.4 L1515.57 1777.4 L1536.03 1777.4 L1556.49 1778.02 L1576.95 1778.02 L1597.41 1778.08 L1617.86 1778.08 L1638.32 1778.07 L1658.78 1778.07 L1679.24 1778.1 L1699.69 1778.1 L1720.15 1778.08 L1740.61 1778.08 L1761.07 1777.08 L1781.52 1777.08 L1801.98 1777.08 L1822.44 1777.08 L1842.9 1775.88 L1863.36 1775.49 L1883.81 1777.57 L1904.27 1777.57 L1904.27 1777.57 L1883.81 1777.57 L1863.36 1775.49 L1842.9 1775.88 L1822.44 1777.08 L1801.98 1777.08 L1781.52 1777.08 L1761.07 1777.08 L1740.61 1778.08 L1720.15 1778.08 L1699.69 1778.1 L1679.24 1778.1 L1658.78 1778.07 L1638.32 1778.07 L1617.86 1778.08 L1597.41 1778.08 L1576.95 1778.02 L1556.49 1778.02 L1536.03 1777.4 L1515.57 1777.4 L1495.12 1777.4 L1474.66 1777.4 L1454.2 1777.4 L1433.74 1777.31 L1413.29 1777.64 L1392.83 1777.38 L1372.37 1776.71 L1351.91 1776.71 L1331.45 1776.71 L1311 1776.71 L1290.54 1777.28 L1270.08 1777.67 L1249.62 1777.48 L1229.17 1777.55 L1208.71 1777.53 L1188.25 1777.53 L1167.79 1777.53 L1147.34 1776.82 L1126.88 1775.68 L1106.42 1777.56 L1085.96 1777.56 L1065.5 1777.56 L1045.05 1777.56 L1024.59 1777.25 L1004.13 1777.25 L983.674 1776.74 L963.216 1771.79 L942.758 1771.02 L922.3 1755.29 L901.843 1185.01 L881.385 1367.04 L860.927 1364.12 L840.47 1364.12 L820.012 1185.41 L799.554 1185.41 L779.096 1185.41 L758.639 1203.23 L738.181 1203.23 L717.723 1200.75 L697.266 1191.48 L676.808 1217.41 L656.35 1217.41 L635.892 1266.79 L615.435 1375.3 L594.977 1215.34 L574.519 1247.36 L554.061 1199.46 L533.604 1226.56 L513.146 1226.56 L492.688 1193.64 L472.231 1223.8 L451.773 1240.83 L431.315 1240.83 L410.857 1233.22 L390.4 1233.22 L369.942 1232.59 L349.484 1237.73 L329.027 1235.53 L308.569 1236.66 L288.111 1236.66  Z" fill="#0000ff" fill-rule="evenodd" fill-opacity="0.2"></path>
<polyline clip-path="url(#clip092)" style="stroke:#0000ff; stroke-linecap:round; stroke-linejoin:round; stroke-width:20; stroke-opacity:1; fill:none" points="288.111,1236.66 308.569,1236.66 329.027,1235.53 349.484,1237.73 369.942,1232.59 390.4,1233.22 410.857,1233.22 431.315,1240.83 451.773,1240.83 472.231,1223.8 492.688,1193.64 513.146,1226.56 533.604,1226.56 554.061,1199.46 574.519,1247.36 594.977,1215.34 615.435,1375.3 635.892,1266.79 656.35,1217.41 676.808,1217.41 697.266,1191.48 717.723,1200.75 738.181,1203.23 758.639,1203.23 779.096,1185.41 799.554,1185.41 820.012,1185.41 840.47,1364.12 860.927,1364.12 881.385,1367.04 901.843,1185.01 922.3,1755.29 942.758,1771.02 963.216,1771.79 983.674,1776.74 1004.13,1777.25 1024.59,1777.25 1045.05,1777.56 1065.5,1777.56 1085.96,1777.56 1106.42,1777.56 1126.88,1775.68 1147.34,1776.82 1167.79,1777.53 1188.25,1777.53 1208.71,1777.53 1229.17,1777.55 1249.62,1777.48 1270.08,1777.67 1290.54,1777.28 1311,1776.71 1331.45,1776.71 1351.91,1776.71 1372.37,1776.71 1392.83,1777.38 1413.29,1777.64 1433.74,1777.31 1454.2,1777.4 1474.66,1777.4 1495.12,1777.4 1515.57,1777.4 1536.03,1777.4 1556.49,1778.02 1576.95,1778.02 1597.41,1778.08 1617.86,1778.08 1638.32,1778.07 1658.78,1778.07 1679.24,1778.1 1699.69,1778.1 1720.15,1778.08 1740.61,1778.08 1761.07,1777.08 1781.52,1777.08 1801.98,1777.08 1822.44,1777.08 1842.9,1775.88 1863.36,1775.49 1883.81,1777.57 1904.27,1777.57 "></polyline>
<path clip-path="url(#clip090)" d="M296.731 415.22 L804.755 415.22 L804.755 207.86 L296.731 207.86  Z" fill="#ffffff" fill-rule="evenodd" fill-opacity="1"></path>
<polyline clip-path="url(#clip090)" style="stroke:#000000; stroke-linecap:round; stroke-linejoin:round; stroke-width:4; stroke-opacity:1; fill:none" points="296.731,415.22 804.755,415.22 804.755,207.86 296.731,207.86 296.731,415.22 "></polyline>
<polyline clip-path="url(#clip090)" style="stroke:#000000; stroke-linecap:round; stroke-linejoin:round; stroke-width:20; stroke-opacity:1; fill:none" points="315.765,259.7 429.974,259.7 "></polyline>
<path clip-path="url(#clip090)" d="M449.009 242.42 L455.305 242.42 L470.629 271.332 L470.629 242.42 L475.166 242.42 L475.166 276.98 L468.87 276.98 L453.546 248.068 L453.546 276.98 L449.009 276.98 L449.009 242.42 Z" fill="#000000" fill-rule="nonzero" fill-opacity="1"></path><path clip-path="url(#clip090)" d="M494.333 254.04 Q490.907 254.04 488.916 256.725 Q486.925 259.387 486.925 264.04 Q486.925 268.693 488.893 271.378 Q490.884 274.04 494.333 274.04 Q497.735 274.04 499.726 271.355 Q501.717 268.67 501.717 264.04 Q501.717 259.434 499.726 256.748 Q497.735 254.04 494.333 254.04 M494.333 250.429 Q499.888 250.429 503.059 254.04 Q506.231 257.651 506.231 264.04 Q506.231 270.406 503.059 274.04 Q499.888 277.651 494.333 277.651 Q488.754 277.651 485.583 274.04 Q482.435 270.406 482.435 264.04 Q482.435 257.651 485.583 254.04 Q488.754 250.429 494.333 250.429 Z" fill="#000000" fill-rule="nonzero" fill-opacity="1"></path><path clip-path="url(#clip090)" d="M533.476 256.031 Q535.073 253.16 537.295 251.795 Q539.518 250.429 542.527 250.429 Q546.578 250.429 548.777 253.276 Q550.976 256.1 550.976 261.332 L550.976 276.98 L546.693 276.98 L546.693 261.471 Q546.693 257.744 545.374 255.938 Q544.055 254.133 541.346 254.133 Q538.036 254.133 536.115 256.332 Q534.194 258.531 534.194 262.327 L534.194 276.98 L529.911 276.98 L529.911 261.471 Q529.911 257.721 528.592 255.938 Q527.272 254.133 524.518 254.133 Q521.254 254.133 519.332 256.355 Q517.411 258.554 517.411 262.327 L517.411 276.98 L513.129 276.98 L513.129 251.054 L517.411 251.054 L517.411 255.082 Q518.87 252.697 520.907 251.563 Q522.944 250.429 525.744 250.429 Q528.569 250.429 530.536 251.864 Q532.527 253.299 533.476 256.031 Z" fill="#000000" fill-rule="nonzero" fill-opacity="1"></path><path clip-path="url(#clip090)" d="M559.471 251.054 L563.73 251.054 L563.73 276.98 L559.471 276.98 L559.471 251.054 M559.471 240.961 L563.73 240.961 L563.73 246.355 L559.471 246.355 L559.471 240.961 Z" fill="#000000" fill-rule="nonzero" fill-opacity="1"></path><path clip-path="url(#clip090)" d="M594.193 261.332 L594.193 276.98 L589.934 276.98 L589.934 261.471 Q589.934 257.79 588.499 255.961 Q587.064 254.133 584.193 254.133 Q580.744 254.133 578.753 256.332 Q576.763 258.531 576.763 262.327 L576.763 276.98 L572.48 276.98 L572.48 251.054 L576.763 251.054 L576.763 255.082 Q578.29 252.744 580.351 251.586 Q582.434 250.429 585.142 250.429 Q589.61 250.429 591.902 253.207 Q594.193 255.961 594.193 261.332 Z" fill="#000000" fill-rule="nonzero" fill-opacity="1"></path><path clip-path="url(#clip090)" d="M614.471 263.947 Q609.309 263.947 607.318 265.128 Q605.327 266.308 605.327 269.156 Q605.327 271.424 606.809 272.767 Q608.313 274.086 610.883 274.086 Q614.425 274.086 616.554 271.586 Q618.707 269.063 618.707 264.896 L618.707 263.947 L614.471 263.947 M622.966 262.188 L622.966 276.98 L618.707 276.98 L618.707 273.045 Q617.249 275.406 615.073 276.54 Q612.897 277.651 609.749 277.651 Q605.767 277.651 603.406 275.429 Q601.068 273.183 601.068 269.433 Q601.068 265.058 603.985 262.836 Q606.925 260.614 612.735 260.614 L618.707 260.614 L618.707 260.197 Q618.707 257.258 616.763 255.66 Q614.841 254.04 611.346 254.04 Q609.124 254.04 607.017 254.572 Q604.911 255.105 602.966 256.17 L602.966 252.234 Q605.304 251.332 607.503 250.892 Q609.702 250.429 611.786 250.429 Q617.411 250.429 620.188 253.346 Q622.966 256.262 622.966 262.188 Z" fill="#000000" fill-rule="nonzero" fill-opacity="1"></path><path clip-path="url(#clip090)" d="M631.739 240.961 L635.999 240.961 L635.999 276.98 L631.739 276.98 L631.739 240.961 Z" fill="#000000" fill-rule="nonzero" fill-opacity="1"></path><path clip-path="url(#clip090)" d="M670.211 241.008 Q667.109 246.332 665.605 251.54 Q664.1 256.748 664.1 262.096 Q664.1 267.443 665.605 272.697 Q667.133 277.929 670.211 283.23 L666.508 283.23 Q663.035 277.79 661.299 272.535 Q659.586 267.281 659.586 262.096 Q659.586 256.934 661.299 251.702 Q663.012 246.471 666.508 241.008 L670.211 241.008 Z" fill="#000000" fill-rule="nonzero" fill-opacity="1"></path><path clip-path="url(#clip090)" d="M682.688 243.693 L682.688 251.054 L691.461 251.054 L691.461 254.364 L682.688 254.364 L682.688 268.438 Q682.688 271.609 683.545 272.512 Q684.424 273.415 687.086 273.415 L691.461 273.415 L691.461 276.98 L687.086 276.98 Q682.156 276.98 680.281 275.151 Q678.406 273.299 678.406 268.438 L678.406 254.364 L675.281 254.364 L675.281 251.054 L678.406 251.054 L678.406 243.693 L682.688 243.693 Z" fill="#000000" fill-rule="nonzero" fill-opacity="1"></path><path clip-path="url(#clip090)" d="M712.086 255.035 Q711.368 254.619 710.512 254.434 Q709.679 254.225 708.66 254.225 Q705.049 254.225 703.105 256.586 Q701.183 258.924 701.183 263.322 L701.183 276.98 L696.901 276.98 L696.901 251.054 L701.183 251.054 L701.183 255.082 Q702.526 252.721 704.679 251.586 Q706.831 250.429 709.91 250.429 Q710.35 250.429 710.882 250.498 Q711.415 250.545 712.063 250.66 L712.086 255.035 Z" fill="#000000" fill-rule="nonzero" fill-opacity="1"></path><path clip-path="url(#clip090)" d="M716.114 266.748 L716.114 251.054 L720.373 251.054 L720.373 266.586 Q720.373 270.267 721.808 272.119 Q723.243 273.947 726.114 273.947 Q729.563 273.947 731.554 271.748 Q733.567 269.549 733.567 265.753 L733.567 251.054 L737.827 251.054 L737.827 276.98 L733.567 276.98 L733.567 272.998 Q732.017 275.359 729.956 276.517 Q727.919 277.651 725.211 277.651 Q720.743 277.651 718.429 274.873 Q716.114 272.095 716.114 266.748 M726.831 250.429 L726.831 250.429 Z" fill="#000000" fill-rule="nonzero" fill-opacity="1"></path><path clip-path="url(#clip090)" d="M768.776 262.952 L768.776 265.035 L749.192 265.035 Q749.47 269.433 751.831 271.748 Q754.215 274.04 758.452 274.04 Q760.905 274.04 763.197 273.438 Q765.512 272.836 767.78 271.633 L767.78 275.66 Q765.489 276.632 763.081 277.142 Q760.674 277.651 758.197 277.651 Q751.993 277.651 748.359 274.04 Q744.748 270.429 744.748 264.271 Q744.748 257.906 748.174 254.179 Q751.623 250.429 757.456 250.429 Q762.688 250.429 765.72 253.809 Q768.776 257.165 768.776 262.952 M764.516 261.702 Q764.47 258.207 762.549 256.123 Q760.651 254.04 757.502 254.04 Q753.938 254.04 751.785 256.054 Q749.655 258.068 749.331 261.725 L764.516 261.702 Z" fill="#000000" fill-rule="nonzero" fill-opacity="1"></path><path clip-path="url(#clip090)" d="M775.095 241.008 L778.799 241.008 Q782.271 246.471 783.984 251.702 Q785.72 256.934 785.72 262.096 Q785.72 267.281 783.984 272.535 Q782.271 277.79 778.799 283.23 L775.095 283.23 Q778.174 277.929 779.678 272.697 Q781.206 267.443 781.206 262.096 Q781.206 256.748 779.678 251.54 Q778.174 246.332 775.095 241.008 Z" fill="#000000" fill-rule="nonzero" fill-opacity="1"></path><polyline clip-path="url(#clip090)" style="stroke:#ff0000; stroke-linecap:round; stroke-linejoin:round; stroke-width:20; stroke-opacity:1; fill:none" points="315.765,311.54 429.974,311.54 "></polyline>
<path clip-path="url(#clip090)" d="M449.009 294.26 L453.685 294.26 L453.685 324.885 L470.513 324.885 L470.513 328.82 L449.009 328.82 L449.009 294.26 Z" fill="#000000" fill-rule="nonzero" fill-opacity="1"></path><path clip-path="url(#clip090)" d="M484.448 305.88 Q481.022 305.88 479.032 308.565 Q477.041 311.227 477.041 315.88 Q477.041 320.533 479.009 323.218 Q480.999 325.88 484.448 325.88 Q487.851 325.88 489.842 323.195 Q491.833 320.51 491.833 315.88 Q491.833 311.274 489.842 308.588 Q487.851 305.88 484.448 305.88 M484.448 302.269 Q490.004 302.269 493.175 305.88 Q496.346 309.491 496.346 315.88 Q496.346 322.246 493.175 325.88 Q490.004 329.491 484.448 329.491 Q478.87 329.491 475.698 325.88 Q472.55 322.246 472.55 315.88 Q472.55 309.491 475.698 305.88 Q478.87 302.269 484.448 302.269 Z" fill="#000000" fill-rule="nonzero" fill-opacity="1"></path><path clip-path="url(#clip090)" d="M500.93 302.894 L505.189 302.894 L510.513 323.125 L515.814 302.894 L520.837 302.894 L526.161 323.125 L531.462 302.894 L535.721 302.894 L528.939 328.82 L523.916 328.82 L518.337 307.57 L512.735 328.82 L507.712 328.82 L500.93 302.894 Z" fill="#000000" fill-rule="nonzero" fill-opacity="1"></path><path clip-path="url(#clip090)" d="M562.11 298.102 L562.11 324.977 L567.758 324.977 Q574.911 324.977 578.221 321.736 Q581.554 318.496 581.554 311.505 Q581.554 304.561 578.221 301.343 Q574.911 298.102 567.758 298.102 L562.11 298.102 M557.434 294.26 L567.041 294.26 Q577.087 294.26 581.786 298.45 Q586.485 302.616 586.485 311.505 Q586.485 320.44 581.763 324.63 Q577.04 328.82 567.041 328.82 L557.434 328.82 L557.434 294.26 Z" fill="#000000" fill-rule="nonzero" fill-opacity="1"></path><path clip-path="url(#clip090)" d="M608.776 306.875 Q608.059 306.459 607.202 306.274 Q606.369 306.065 605.351 306.065 Q601.739 306.065 599.795 308.426 Q597.874 310.764 597.874 315.162 L597.874 328.82 L593.591 328.82 L593.591 302.894 L597.874 302.894 L597.874 306.922 Q599.216 304.561 601.369 303.426 Q603.522 302.269 606.601 302.269 Q607.04 302.269 607.573 302.338 Q608.105 302.385 608.753 302.5 L608.776 306.875 Z" fill="#000000" fill-rule="nonzero" fill-opacity="1"></path><path clip-path="url(#clip090)" d="M625.026 315.787 Q619.864 315.787 617.874 316.968 Q615.883 318.148 615.883 320.996 Q615.883 323.264 617.364 324.607 Q618.869 325.926 621.438 325.926 Q624.98 325.926 627.11 323.426 Q629.262 320.903 629.262 316.736 L629.262 315.787 L625.026 315.787 M633.522 314.028 L633.522 328.82 L629.262 328.82 L629.262 324.885 Q627.804 327.246 625.628 328.38 Q623.452 329.491 620.304 329.491 Q616.323 329.491 613.962 327.269 Q611.624 325.023 611.624 321.273 Q611.624 316.898 614.54 314.676 Q617.48 312.454 623.29 312.454 L629.262 312.454 L629.262 312.037 Q629.262 309.098 627.318 307.5 Q625.397 305.88 621.901 305.88 Q619.679 305.88 617.573 306.412 Q615.466 306.945 613.522 308.01 L613.522 304.074 Q615.86 303.172 618.059 302.732 Q620.258 302.269 622.341 302.269 Q627.966 302.269 630.744 305.186 Q633.522 308.102 633.522 314.028 Z" fill="#000000" fill-rule="nonzero" fill-opacity="1"></path><path clip-path="url(#clip090)" d="M659.355 315.556 Q659.355 310.926 657.434 308.38 Q655.535 305.834 652.086 305.834 Q648.66 305.834 646.739 308.38 Q644.841 310.926 644.841 315.556 Q644.841 320.162 646.739 322.709 Q648.66 325.255 652.086 325.255 Q655.535 325.255 657.434 322.709 Q659.355 320.162 659.355 315.556 M663.614 325.602 Q663.614 332.222 660.674 335.44 Q657.735 338.681 651.67 338.681 Q649.424 338.681 647.434 338.334 Q645.443 338.009 643.568 337.315 L643.568 333.172 Q645.443 334.19 647.272 334.676 Q649.1 335.162 650.998 335.162 Q655.188 335.162 657.272 332.963 Q659.355 330.787 659.355 326.366 L659.355 324.26 Q658.035 326.551 655.975 327.685 Q653.915 328.82 651.045 328.82 Q646.276 328.82 643.36 325.185 Q640.443 321.551 640.443 315.556 Q640.443 309.537 643.36 305.903 Q646.276 302.269 651.045 302.269 Q653.915 302.269 655.975 303.403 Q658.035 304.537 659.355 306.829 L659.355 302.894 L663.614 302.894 L663.614 325.602 Z" fill="#000000" fill-rule="nonzero" fill-opacity="1"></path><polyline clip-path="url(#clip090)" style="stroke:#0000ff; stroke-linecap:round; stroke-linejoin:round; stroke-width:20; stroke-opacity:1; fill:none" points="315.765,363.38 429.974,363.38 "></polyline>
<path clip-path="url(#clip090)" d="M449.009 346.1 L453.685 346.1 L453.685 360.266 L470.675 360.266 L470.675 346.1 L475.351 346.1 L475.351 380.66 L470.675 380.66 L470.675 364.201 L453.685 364.201 L453.685 380.66 L449.009 380.66 L449.009 346.1 Z" fill="#000000" fill-rule="nonzero" fill-opacity="1"></path><path clip-path="url(#clip090)" d="M484.472 354.734 L488.731 354.734 L488.731 380.66 L484.472 380.66 L484.472 354.734 M484.472 344.641 L488.731 344.641 L488.731 350.035 L484.472 350.035 L484.472 344.641 Z" fill="#000000" fill-rule="nonzero" fill-opacity="1"></path><path clip-path="url(#clip090)" d="M514.703 367.396 Q514.703 362.766 512.782 360.22 Q510.883 357.674 507.434 357.674 Q504.008 357.674 502.087 360.22 Q500.189 362.766 500.189 367.396 Q500.189 372.002 502.087 374.549 Q504.008 377.095 507.434 377.095 Q510.883 377.095 512.782 374.549 Q514.703 372.002 514.703 367.396 M518.962 377.442 Q518.962 384.062 516.022 387.28 Q513.083 390.521 507.018 390.521 Q504.772 390.521 502.782 390.174 Q500.791 389.849 498.916 389.155 L498.916 385.012 Q500.791 386.03 502.62 386.516 Q504.448 387.002 506.346 387.002 Q510.536 387.002 512.62 384.803 Q514.703 382.627 514.703 378.206 L514.703 376.1 Q513.383 378.391 511.323 379.525 Q509.263 380.66 506.393 380.66 Q501.624 380.66 498.708 377.025 Q495.791 373.391 495.791 367.396 Q495.791 361.377 498.708 357.743 Q501.624 354.109 506.393 354.109 Q509.263 354.109 511.323 355.243 Q513.383 356.377 514.703 358.669 L514.703 354.734 L518.962 354.734 L518.962 377.442 Z" fill="#000000" fill-rule="nonzero" fill-opacity="1"></path><path clip-path="url(#clip090)" d="M549.286 365.012 L549.286 380.66 L545.027 380.66 L545.027 365.151 Q545.027 361.47 543.592 359.641 Q542.156 357.813 539.286 357.813 Q535.837 357.813 533.846 360.012 Q531.856 362.211 531.856 366.007 L531.856 380.66 L527.573 380.66 L527.573 344.641 L531.856 344.641 L531.856 358.762 Q533.383 356.424 535.443 355.266 Q537.527 354.109 540.235 354.109 Q544.703 354.109 546.994 356.887 Q549.286 359.641 549.286 365.012 Z" fill="#000000" fill-rule="nonzero" fill-opacity="1"></path><path clip-path="url(#clip090)" d="M577.712 349.942 L577.712 376.817 L583.36 376.817 Q590.513 376.817 593.823 373.576 Q597.156 370.336 597.156 363.345 Q597.156 356.401 593.823 353.183 Q590.513 349.942 583.36 349.942 L577.712 349.942 M573.036 346.1 L582.642 346.1 Q592.689 346.1 597.388 350.29 Q602.087 354.456 602.087 363.345 Q602.087 372.28 597.364 376.47 Q592.642 380.66 582.642 380.66 L573.036 380.66 L573.036 346.1 Z" fill="#000000" fill-rule="nonzero" fill-opacity="1"></path><path clip-path="url(#clip090)" d="M624.378 358.715 Q623.661 358.299 622.804 358.114 Q621.971 357.905 620.952 357.905 Q617.341 357.905 615.397 360.266 Q613.475 362.604 613.475 367.002 L613.475 380.66 L609.193 380.66 L609.193 354.734 L613.475 354.734 L613.475 358.762 Q614.818 356.401 616.971 355.266 Q619.124 354.109 622.202 354.109 Q622.642 354.109 623.175 354.178 Q623.707 354.225 624.355 354.34 L624.378 358.715 Z" fill="#000000" fill-rule="nonzero" fill-opacity="1"></path><path clip-path="url(#clip090)" d="M640.628 367.627 Q635.466 367.627 633.475 368.808 Q631.485 369.988 631.485 372.836 Q631.485 375.104 632.966 376.447 Q634.471 377.766 637.04 377.766 Q640.582 377.766 642.711 375.266 Q644.864 372.743 644.864 368.576 L644.864 367.627 L640.628 367.627 M649.123 365.868 L649.123 380.66 L644.864 380.66 L644.864 376.725 Q643.406 379.086 641.23 380.22 Q639.054 381.331 635.906 381.331 Q631.924 381.331 629.563 379.109 Q627.225 376.863 627.225 373.113 Q627.225 368.738 630.142 366.516 Q633.082 364.294 638.892 364.294 L644.864 364.294 L644.864 363.877 Q644.864 360.938 642.92 359.34 Q640.998 357.72 637.503 357.72 Q635.281 357.72 633.174 358.252 Q631.068 358.785 629.124 359.85 L629.124 355.914 Q631.462 355.012 633.661 354.572 Q635.86 354.109 637.943 354.109 Q643.568 354.109 646.346 357.026 Q649.123 359.942 649.123 365.868 Z" fill="#000000" fill-rule="nonzero" fill-opacity="1"></path><path clip-path="url(#clip090)" d="M674.957 367.396 Q674.957 362.766 673.035 360.22 Q671.137 357.674 667.688 357.674 Q664.262 357.674 662.341 360.22 Q660.443 362.766 660.443 367.396 Q660.443 372.002 662.341 374.549 Q664.262 377.095 667.688 377.095 Q671.137 377.095 673.035 374.549 Q674.957 372.002 674.957 367.396 M679.216 377.442 Q679.216 384.062 676.276 387.28 Q673.336 390.521 667.271 390.521 Q665.026 390.521 663.035 390.174 Q661.045 389.849 659.17 389.155 L659.17 385.012 Q661.045 386.03 662.873 386.516 Q664.702 387.002 666.6 387.002 Q670.79 387.002 672.873 384.803 Q674.957 382.627 674.957 378.206 L674.957 376.1 Q673.637 378.391 671.577 379.525 Q669.517 380.66 666.647 380.66 Q661.878 380.66 658.961 377.025 Q656.045 373.391 656.045 367.396 Q656.045 361.377 658.961 357.743 Q661.878 354.109 666.647 354.109 Q669.517 354.109 671.577 355.243 Q673.637 356.377 674.957 358.669 L674.957 354.734 L679.216 354.734 L679.216 377.442 Z" fill="#000000" fill-rule="nonzero" fill-opacity="1"></path></svg>